solid CheckersPiece
facet normal -0.0 -0.0 1.0
outer loop
vertex -109.330018944939 54.2309146749547 0.0
vertex -109.346195135258 54.2330443108117 0.0
vertex -109.330018944939 53.7766239633466 0.0
endloop
endfacet
facet normal -0.0 -0.0 1.0
outer loop
vertex -109.177580505305 54.1409762353206 0.0
vertex -109.269648580796 54.2772384846358 0.0
vertex -109.274114623729 54.2664565032158 0.0
endloop
endfacet
facet normal -0.0 -0.0 1.0
outer loop
vertex -109.269648580796 54.2772384846358 0.0
vertex -109.177580505305 54.1409762353206 0.0
vertex -109.267518944939 54.2934146749547 0.0
endloop
endfacet
facet normal -0.0 -0.0 1.0
outer loop
vertex -109.177580505305 54.1409762353206 0.0
vertex -109.041387823776 54.2851792506489 0.0
vertex -109.041408241414 54.301495011901 0.0
endloop
endfacet
facet normal -0.0 -0.0 1.0
outer loop
vertex -109.041387823776 54.2851792506489 0.0
vertex -109.177580505305 54.1409762353206 0.0
vertex -109.037145272105 54.2694247199535 0.0
endloop
endfacet
facet normal -0.0 -0.0 1.0
outer loop
vertex -109.037145272105 54.2694247199535 0.0
vertex -109.177580505305 54.1409762353206 0.0
vertex -109.028969709285 54.2553050650462 0.0
endloop
endfacet
facet normal -0.0 -0.0 1.0
outer loop
vertex -108.862159275788 54.1409762353206 0.0
vertex -108.929800619399 54.2554291658203 0.0
vertex -108.94132316737 54.2438777429482 0.0
endloop
endfacet
facet normal -0.0 -0.0 1.0
outer loop
vertex -108.929800619399 54.2554291658203 0.0
vertex -108.862159275788 54.1409762353206 0.0
vertex -108.921660420966 54.2695692383658 0.0
endloop
endfacet
facet normal -0.0 -0.0 1.0
outer loop
vertex -108.921660420966 54.2695692383658 0.0
vertex -108.862159275788 54.1409762353206 0.0
vertex -108.917457313143 54.2853343380085 0.0
endloop
endfacet
facet normal -0.0 -0.0 1.0
outer loop
vertex -108.862159275788 54.1409762353206 0.0
vertex -108.725966594259 54.2851792506489 0.0
vertex -108.725987011897 54.301495011901 0.0
endloop
endfacet
facet normal -0.0 -0.0 1.0
outer loop
vertex -108.725966594259 54.2851792506489 0.0
vertex -108.862159275788 54.1409762353206 0.0
vertex -108.721724042588 54.2694247199535 0.0
endloop
endfacet
facet normal -0.0 -0.0 1.0
outer loop
vertex -108.721724042588 54.2694247199535 0.0
vertex -108.862159275788 54.1409762353206 0.0
vertex -108.713548479768 54.2553050650462 0.0
endloop
endfacet
facet normal -0.0 -0.0 1.0
outer loop
vertex -109.500211250608 53.5688138848227 0.0
vertex -109.330018944939 53.7766239633466 0.0
vertex -109.500211250608 54.5688138848227 0.0
endloop
endfacet
facet normal -0.0 -0.0 1.0
outer loop
vertex -109.330018944939 53.7766239633466 0.0
vertex -109.500211250608 53.5688138848227 0.0
vertex -108.500211250608 53.5688138848227 0.0
endloop
endfacet
facet normal -0.0 -0.0 1.0
outer loop
vertex -109.500211250608 54.5688138848227 0.0
vertex -109.330018944939 53.7766239633466 0.0
vertex -109.392518944939 54.2934146749547 0.0
endloop
endfacet
facet normal -0.0 -0.0 1.0
outer loop
vertex -109.392518944939 54.2934146749547 0.0
vertex -109.330018944939 53.7766239633466 0.0
vertex -109.390389309082 54.2772384846358 0.0
endloop
endfacet
facet normal -0.0 -0.0 1.0
outer loop
vertex -109.390389309082 54.2772384846358 0.0
vertex -109.330018944939 53.7766239633466 0.0
vertex -109.384145532675 54.2621646749547 0.0
endloop
endfacet
facet normal -0.0 -0.0 1.0
outer loop
vertex -109.384145532675 54.2621646749547 0.0
vertex -109.330018944939 53.7766239633466 0.0
vertex -109.374213118763 54.2492205011306 0.0
endloop
endfacet
facet normal -0.0 -0.0 1.0
outer loop
vertex -109.374213118763 54.2492205011306 0.0
vertex -109.330018944939 53.7766239633466 0.0
vertex -109.361268944939 54.2392880872182 0.0
endloop
endfacet
facet normal -0.0 -0.0 1.0
outer loop
vertex -109.361268944939 54.2392880872182 0.0
vertex -109.330018944939 53.7766239633466 0.0
vertex -109.346195135258 54.2330443108117 0.0
endloop
endfacet
facet normal -0.0 -0.0 1.0
outer loop
vertex -109.330018944939 53.7766239633466 0.0
vertex -108.500211250608 53.5688138848227 0.0
vertex -108.664011547762 53.7766239633466 0.0
endloop
endfacet
facet normal -0.0 -0.0 1.0
outer loop
vertex -108.664011547762 53.7766239633466 0.0
vertex -108.500211250608 53.5688138848227 0.0
vertex -108.664011547762 54.2314493225996 0.0
endloop
endfacet
facet normal -0.0 -0.0 1.0
outer loop
vertex -108.664011547762 54.2314493225996 0.0
vertex -108.500211250608 53.5688138848227 0.0
vertex -108.655776123456 54.2314596284573 0.0
endloop
endfacet
facet normal -0.0 -0.0 1.0
outer loop
vertex -108.655776123456 54.2314596284573 0.0
vertex -108.500211250608 53.5688138848227 0.0
vertex -108.64002159276 54.2357021801288 0.0
endloop
endfacet
facet normal -0.0 -0.0 1.0
outer loop
vertex -108.64002159276 54.2357021801288 0.0
vertex -108.500211250608 53.5688138848227 0.0
vertex -108.625901937853 54.2438777429482 0.0
endloop
endfacet
facet normal -0.0 -0.0 1.0
outer loop
vertex -108.625901937853 54.2438777429482 0.0
vertex -108.500211250608 53.5688138848227 0.0
vertex -108.614379389882 54.2554291658203 0.0
endloop
endfacet
facet normal -0.0 -0.0 1.0
outer loop
vertex -108.614379389882 54.2554291658203 0.0
vertex -108.500211250608 53.5688138848227 0.0
vertex -108.606239191449 54.2695692383658 0.0
endloop
endfacet
facet normal -0.0 -0.0 1.0
outer loop
vertex -108.606239191449 54.2695692383658 0.0
vertex -108.500211250608 53.5688138848227 0.0
vertex -108.602036083626 54.2853343380085 0.0
endloop
endfacet
facet normal -0.0 -0.0 1.0
outer loop
vertex -109.500211250608 54.5688138848227 0.0
vertex -109.346195135258 54.3537850390978 0.0
vertex -108.500211250608 54.5688138848227 0.0
endloop
endfacet
facet normal -0.0 -0.0 1.0
outer loop
vertex -109.346195135258 54.3537850390978 0.0
vertex -109.500211250608 54.5688138848227 0.0
vertex -109.361268944939 54.3475412626913 0.0
endloop
endfacet
facet normal -0.0 -0.0 1.0
outer loop
vertex -109.361268944939 54.3475412626913 0.0
vertex -109.500211250608 54.5688138848227 0.0
vertex -109.374213118763 54.3376088487789 0.0
endloop
endfacet
facet normal -0.0 -0.0 1.0
outer loop
vertex -109.374213118763 54.3376088487789 0.0
vertex -109.500211250608 54.5688138848227 0.0
vertex -109.384145532675 54.3246646749547 0.0
endloop
endfacet
facet normal -0.0 -0.0 1.0
outer loop
vertex -109.384145532675 54.3246646749547 0.0
vertex -109.500211250608 54.5688138848227 0.0
vertex -109.390389309082 54.3095908652736 0.0
endloop
endfacet
facet normal -0.0 -0.0 1.0
outer loop
vertex -109.390389309082 54.3095908652736 0.0
vertex -109.500211250608 54.5688138848227 0.0
vertex -109.392518944939 54.2934146749547 0.0
endloop
endfacet
facet normal -0.0 -0.0 1.0
outer loop
vertex -108.500211250608 54.5688138848227 0.0
vertex -109.346195135258 54.3537850390978 0.0
vertex -109.330018944939 54.3559146749547 0.0
endloop
endfacet
facet normal -0.0 -0.0 1.0
outer loop
vertex -108.500211250608 54.5688138848227 0.0
vertex -109.330018944939 54.3559146749547 0.0
vertex -109.31384275462 54.3537850390978 0.0
endloop
endfacet
facet normal -0.0 -0.0 1.0
outer loop
vertex -108.500211250608 54.5688138848227 0.0
vertex -109.31384275462 54.3537850390978 0.0
vertex -109.298768944939 54.3475412626913 0.0
endloop
endfacet
facet normal -0.0 -0.0 1.0
outer loop
vertex -108.500211250608 54.5688138848227 0.0
vertex -109.298768944939 54.3475412626913 0.0
vertex -109.285824771115 54.3376088487789 0.0
endloop
endfacet
facet normal -0.0 -0.0 1.0
outer loop
vertex -108.500211250608 54.5688138848227 0.0
vertex -109.285824771115 54.3376088487789 0.0
vertex -109.275892357202 54.3246646749547 0.0
endloop
endfacet
facet normal -0.0 -0.0 1.0
outer loop
vertex -108.500211250608 54.5688138848227 0.0
vertex -109.275892357202 54.3246646749547 0.0
vertex -109.269648580796 54.3095908652736 0.0
endloop
endfacet
facet normal -0.0 -0.0 1.0
outer loop
vertex -108.500211250608 54.5688138848227 0.0
vertex -109.269648580796 54.3095908652736 0.0
vertex -109.267518944939 54.2934146749547 0.0
endloop
endfacet
facet normal -0.0 -0.0 1.0
outer loop
vertex -108.500211250608 54.5688138848227 0.0
vertex -109.267518944939 54.2934146749547 0.0
vertex -109.00342273228 54.3511271697807 0.0
endloop
endfacet
facet normal -0.0 -0.0 1.0
outer loop
vertex -109.00342273228 54.3511271697807 0.0
vertex -109.267518944939 54.2934146749547 0.0
vertex -109.017542387187 54.3429516069613 0.0
endloop
endfacet
facet normal -0.0 -0.0 1.0
outer loop
vertex -109.017542387187 54.3429516069613 0.0
vertex -109.267518944939 54.2934146749547 0.0
vertex -109.029064935158 54.3314001840892 0.0
endloop
endfacet
facet normal -0.0 -0.0 1.0
outer loop
vertex -109.029064935158 54.3314001840892 0.0
vertex -109.267518944939 54.2934146749547 0.0
vertex -109.177580505305 54.1409762353206 0.0
endloop
endfacet
facet normal -0.0 -0.0 1.0
outer loop
vertex -109.029064935158 54.3314001840892 0.0
vertex -109.177580505305 54.1409762353206 0.0
vertex -109.037205133591 54.3172601115437 0.0
endloop
endfacet
facet normal -0.0 -0.0 1.0
outer loop
vertex -109.037205133591 54.3172601115437 0.0
vertex -109.177580505305 54.1409762353206 0.0
vertex -109.041408241414 54.301495011901 0.0
endloop
endfacet
facet normal -0.0 -0.0 1.0
outer loop
vertex -108.500211250608 54.5688138848227 0.0
vertex -109.00342273228 54.3511271697807 0.0
vertex -108.987668201585 54.3553697214522 0.0
endloop
endfacet
facet normal -0.0 -0.0 1.0
outer loop
vertex -108.500211250608 54.5688138848227 0.0
vertex -108.987668201585 54.3553697214522 0.0
vertex -108.971352440332 54.3553901390904 0.0
endloop
endfacet
facet normal -0.0 -0.0 1.0
outer loop
vertex -108.500211250608 54.5688138848227 0.0
vertex -108.971352440332 54.3553901390904 0.0
vertex -108.95558734069 54.3511870312671 0.0
endloop
endfacet
facet normal -0.0 -0.0 1.0
outer loop
vertex -108.500211250608 54.5688138848227 0.0
vertex -108.95558734069 54.3511870312671 0.0
vertex -108.941447268144 54.3430468328344 0.0
endloop
endfacet
facet normal -0.0 -0.0 1.0
outer loop
vertex -108.500211250608 54.5688138848227 0.0
vertex -108.941447268144 54.3430468328344 0.0
vertex -108.929895845272 54.3315242848633 0.0
endloop
endfacet
facet normal -0.0 -0.0 1.0
outer loop
vertex -108.500211250608 54.5688138848227 0.0
vertex -108.929895845272 54.3315242848633 0.0
vertex -108.921720282453 54.317404629956 0.0
endloop
endfacet
facet normal -0.0 -0.0 1.0
outer loop
vertex -108.500211250608 54.5688138848227 0.0
vertex -108.921720282453 54.317404629956 0.0
vertex -108.917477730781 54.3016500992606 0.0
endloop
endfacet
facet normal -0.0 -0.0 1.0
outer loop
vertex -108.500211250608 54.5688138848227 0.0
vertex -108.917477730781 54.3016500992606 0.0
vertex -108.917457313143 54.2853343380085 0.0
endloop
endfacet
facet normal -0.0 -0.0 1.0
outer loop
vertex -108.500211250608 54.5688138848227 0.0
vertex -108.917457313143 54.2853343380085 0.0
vertex -108.713643705641 54.3314001840892 0.0
endloop
endfacet
facet normal -0.0 -0.0 1.0
outer loop
vertex -108.713643705641 54.3314001840892 0.0
vertex -108.917457313143 54.2853343380085 0.0
vertex -108.862159275788 54.1409762353206 0.0
endloop
endfacet
facet normal -0.0 -0.0 1.0
outer loop
vertex -108.713643705641 54.3314001840892 0.0
vertex -108.862159275788 54.1409762353206 0.0
vertex -108.721783904074 54.3172601115437 0.0
endloop
endfacet
facet normal -0.0 -0.0 1.0
outer loop
vertex -108.721783904074 54.3172601115437 0.0
vertex -108.862159275788 54.1409762353206 0.0
vertex -108.725987011897 54.301495011901 0.0
endloop
endfacet
facet normal -0.0 -0.0 1.0
outer loop
vertex -108.500211250608 54.5688138848227 0.0
vertex -108.713643705641 54.3314001840892 0.0
vertex -108.70212115767 54.3429516069613 0.0
endloop
endfacet
facet normal -0.0 -0.0 1.0
outer loop
vertex -108.500211250608 54.5688138848227 0.0
vertex -108.70212115767 54.3429516069613 0.0
vertex -108.688001502763 54.3511271697807 0.0
endloop
endfacet
facet normal -0.0 -0.0 1.0
outer loop
vertex -108.500211250608 54.5688138848227 0.0
vertex -108.688001502763 54.3511271697807 0.0
vertex -108.672246972067 54.3553697214522 0.0
endloop
endfacet
facet normal -0.0 -0.0 1.0
outer loop
vertex -108.500211250608 54.5688138848227 0.0
vertex -108.672246972067 54.3553697214522 0.0
vertex -108.655931210815 54.3553901390904 0.0
endloop
endfacet
facet normal -0.0 -0.0 1.0
outer loop
vertex -108.500211250608 54.5688138848227 0.0
vertex -108.655931210815 54.3553901390904 0.0
vertex -108.640166111173 54.3511870312671 0.0
endloop
endfacet
facet normal -0.0 -0.0 1.0
outer loop
vertex -108.500211250608 54.5688138848227 0.0
vertex -108.640166111173 54.3511870312671 0.0
vertex -108.626026038627 54.3430468328344 0.0
endloop
endfacet
facet normal -0.0 -0.0 1.0
outer loop
vertex -108.500211250608 54.5688138848227 0.0
vertex -108.626026038627 54.3430468328344 0.0
vertex -108.614474615755 54.3315242848633 0.0
endloop
endfacet
facet normal -0.0 -0.0 1.0
outer loop
vertex -108.500211250608 54.5688138848227 0.0
vertex -108.614474615755 54.3315242848633 0.0
vertex -108.606299052936 54.317404629956 0.0
endloop
endfacet
facet normal -0.0 -0.0 1.0
outer loop
vertex -108.500211250608 54.5688138848227 0.0
vertex -108.606299052936 54.317404629956 0.0
vertex -108.602056501264 54.3016500992606 0.0
endloop
endfacet
facet normal -0.0 -0.0 1.0
outer loop
vertex -108.500211250608 54.5688138848227 0.0
vertex -108.602056501264 54.3016500992606 0.0
vertex -108.602036083626 54.2853343380085 0.0
endloop
endfacet
facet normal -0.0 -0.0 1.0
outer loop
vertex -108.500211250608 54.5688138848227 0.0
vertex -108.602036083626 54.2853343380085 0.0
vertex -108.500211250608 53.5688138848227 0.0
endloop
endfacet
facet normal -0.0 -0.0 -1.0
outer loop
vertex -108.500211250608 54.5688138848227 -1.0
vertex -109.500211250608 53.5688138848227 -1.0
vertex -109.500211250608 54.5688138848227 -1.0
endloop
endfacet
facet normal -0.0 -0.0 -1.0
outer loop
vertex -109.500211250608 53.5688138848227 -1.0
vertex -108.500211250608 54.5688138848227 -1.0
vertex -108.500211250608 53.5688138848227 -1.0
endloop
endfacet
facet normal -0.0 1.0 0.0
outer loop
vertex -109.500211250608 54.5688138848227 0.0
vertex -108.500211250608 54.5688138848227 -1.0
vertex -109.500211250608 54.5688138848227 -1.0
endloop
endfacet
facet normal -0.0 1.0 0.0
outer loop
vertex -108.500211250608 54.5688138848227 -1.0
vertex -109.500211250608 54.5688138848227 0.0
vertex -108.500211250608 54.5688138848227 0.0
endloop
endfacet
facet normal 1.0 0.0 0.0
outer loop
vertex -108.500211250608 54.5688138848227 -1.0
vertex -108.500211250608 53.5688138848227 0.0
vertex -108.500211250608 53.5688138848227 -1.0
endloop
endfacet
facet normal 1.0 0.0 0.0
outer loop
vertex -108.500211250608 53.5688138848227 0.0
vertex -108.500211250608 54.5688138848227 -1.0
vertex -108.500211250608 54.5688138848227 0.0
endloop
endfacet
facet normal -0.0 -1.0 -0.0
outer loop
vertex -108.500211250608 53.5688138848227 0.0
vertex -109.500211250608 53.5688138848227 -1.0
vertex -108.500211250608 53.5688138848227 -1.0
endloop
endfacet
facet normal -0.0 -1.0 -0.0
outer loop
vertex -109.500211250608 53.5688138848227 -1.0
vertex -108.500211250608 53.5688138848227 0.0
vertex -109.500211250608 53.5688138848227 0.0
endloop
endfacet
facet normal -1.0 0.0 0.0
outer loop
vertex -109.500211250608 54.5688138848227 0.0
vertex -109.500211250608 53.5688138848227 -1.0
vertex -109.500211250608 53.5688138848227 0.0
endloop
endfacet
facet normal -1.0 0.0 0.0
outer loop
vertex -109.500211250608 53.5688138848227 -1.0
vertex -109.500211250608 54.5688138848227 0.0
vertex -109.500211250608 54.5688138848227 -1.0
endloop
endfacet
facet normal -0.0 1.0 -0.0
outer loop
vertex -109.330018944939 53.7766239633466 0.0
vertex -108.664011547762 53.7766239633466 -0.125
vertex -109.330018944939 53.7766239633466 -0.125
endloop
endfacet
facet normal -0.0 1.0 -0.0
outer loop
vertex -108.664011547762 53.7766239633466 -0.125
vertex -109.330018944939 53.7766239633466 0.0
vertex -108.664011547762 53.7766239633466 0.0
endloop
endfacet
facet normal -1.0 0.0 0.0
outer loop
vertex -108.664011547762 54.2314493225996 0.0
vertex -108.664011547762 53.7766239633466 -0.125
vertex -108.664011547762 53.7766239633466 0.0
endloop
endfacet
facet normal -1.0 0.0 0.0
outer loop
vertex -108.664011547762 53.7766239633466 -0.125
vertex -108.664011547762 54.2314493225996 0.0
vertex -108.664011547762 54.2314493225996 -0.125
endloop
endfacet
facet normal -0.792590912104307 -0.609753758536725 0.0
outer loop
vertex -108.94132316737 54.2438777429482 0.0
vertex -108.862159275788 54.1409762353206 -0.125
vertex -108.862159275788 54.1409762353206 0.0
endloop
endfacet
facet normal -0.792590912104307 -0.609753758536725 0.0
outer loop
vertex -108.862159275788 54.1409762353206 -0.125
vertex -108.94132316737 54.2438777429482 0.0
vertex -108.94132316737 54.2438777429482 -0.125
endloop
endfacet
facet normal -7.12669662283353e-19 8.38691903523479e-18 1.0
outer loop
vertex -108.664011547762 53.7766239633466 -0.125
vertex -109.330018944939 54.2309146749547 -0.125
vertex -109.330018944939 53.7766239633466 -0.125
endloop
endfacet
facet normal -7.12669662283353e-19 8.38691903523479e-18 1.0
outer loop
vertex -109.330018944939 54.2309146749547 -0.125
vertex -108.664011547762 53.7766239633466 -0.125
vertex -109.31384275462 54.2330443108117 -0.125
endloop
endfacet
facet normal -7.12669662283353e-19 8.38691903523479e-18 1.0
outer loop
vertex -109.31384275462 54.2330443108117 -0.125
vertex -108.664011547762 53.7766239633466 -0.125
vertex -109.177580505305 54.1409762353206 -0.125
endloop
endfacet
facet normal -7.12669662283353e-19 8.38691903523479e-18 1.0
outer loop
vertex -109.31384275462 54.2330443108117 -0.125
vertex -109.177580505305 54.1409762353206 -0.125
vertex -109.298768944939 54.2392880872182 -0.125
endloop
endfacet
facet normal -7.12669662283353e-19 8.38691903523479e-18 1.0
outer loop
vertex -109.298768944939 54.2392880872182 -0.125
vertex -109.177580505305 54.1409762353206 -0.125
vertex -109.285824771115 54.2492205011306 -0.125
endloop
endfacet
facet normal -7.12669662283353e-19 8.38691903523479e-18 1.0
outer loop
vertex -109.285824771115 54.2492205011306 -0.125
vertex -109.177580505305 54.1409762353206 -0.125
vertex -109.275892357202 54.2621646749547 -0.125
endloop
endfacet
facet normal -7.12669662283353e-19 8.38691903523479e-18 1.0
outer loop
vertex -109.275892357202 54.2621646749547 -0.125
vertex -109.177580505305 54.1409762353206 -0.125
vertex -109.274114623729 54.2664565032158 -0.125
endloop
endfacet
facet normal -7.12669662283353e-19 8.38691903523479e-18 1.0
outer loop
vertex -109.177580505305 54.1409762353206 -0.125
vertex -108.664011547762 53.7766239633466 -0.125
vertex -109.028969709285 54.2553050650462 -0.125
endloop
endfacet
facet normal -7.12669662283353e-19 8.38691903523479e-18 1.0
outer loop
vertex -109.028969709285 54.2553050650462 -0.125
vertex -108.664011547762 53.7766239633466 -0.125
vertex -109.02783249723 54.2541706956615 -0.125
endloop
endfacet
facet normal -7.12669662283353e-19 8.38691903523479e-18 1.0
outer loop
vertex -109.02783249723 54.2541706956615 -0.125
vertex -108.664011547762 53.7766239633466 -0.125
vertex -109.017418286413 54.243782517075 -0.125
endloop
endfacet
facet normal -7.12669662283353e-19 8.38691903523479e-18 1.0
outer loop
vertex -109.017418286413 54.243782517075 -0.125
vertex -108.664011547762 53.7766239633466 -0.125
vertex -109.003278213868 54.2356423186424 -0.125
endloop
endfacet
facet normal -7.12669662283353e-19 8.38691903523479e-18 1.0
outer loop
vertex -109.003278213868 54.2356423186424 -0.125
vertex -108.664011547762 53.7766239633466 -0.125
vertex -108.987513114225 54.231439210819 -0.125
endloop
endfacet
facet normal -7.12669662283353e-19 8.38691903523479e-18 1.0
outer loop
vertex -108.987513114225 54.231439210819 -0.125
vertex -108.664011547762 53.7766239633466 -0.125
vertex -108.971197352973 54.2314596284573 -0.125
endloop
endfacet
facet normal -7.12669662283353e-19 8.38691903523479e-18 1.0
outer loop
vertex -108.971197352973 54.2314596284573 -0.125
vertex -108.664011547762 53.7766239633466 -0.125
vertex -108.955442822277 54.2357021801288 -0.125
endloop
endfacet
facet normal -7.12669662283353e-19 8.38691903523479e-18 1.0
outer loop
vertex -108.955442822277 54.2357021801288 -0.125
vertex -108.664011547762 53.7766239633466 -0.125
vertex -108.94132316737 54.2438777429482 -0.125
endloop
endfacet
facet normal -7.12669662283353e-19 8.38691903523479e-18 1.0
outer loop
vertex -108.94132316737 54.2438777429482 -0.125
vertex -108.664011547762 53.7766239633466 -0.125
vertex -108.862159275788 54.1409762353206 -0.125
endloop
endfacet
facet normal -7.12669662283353e-19 8.38691903523479e-18 1.0
outer loop
vertex -108.862159275788 54.1409762353206 -0.125
vertex -108.664011547762 53.7766239633466 -0.125
vertex -108.713548479768 54.2553050650462 -0.125
endloop
endfacet
facet normal -7.12669662283353e-19 8.38691903523479e-18 1.0
outer loop
vertex -108.713548479768 54.2553050650462 -0.125
vertex -108.664011547762 53.7766239633466 -0.125
vertex -108.701997056896 54.243782517075 -0.125
endloop
endfacet
facet normal -7.12669662283353e-19 8.38691903523479e-18 1.0
outer loop
vertex -108.701997056896 54.243782517075 -0.125
vertex -108.664011547762 53.7766239633466 -0.125
vertex -108.687856984351 54.2356423186424 -0.125
endloop
endfacet
facet normal -7.12669662283353e-19 8.38691903523479e-18 1.0
outer loop
vertex -108.687856984351 54.2356423186424 -0.125
vertex -108.664011547762 53.7766239633466 -0.125
vertex -108.672091884708 54.231439210819 -0.125
endloop
endfacet
facet normal -7.12669662283353e-19 8.38691903523479e-18 1.0
outer loop
vertex -108.672091884708 54.231439210819 -0.125
vertex -108.664011547762 53.7766239633466 -0.125
vertex -108.664011547762 54.2314493225996 -0.125
endloop
endfacet
facet normal -0.792590912104292 -0.609753758536744 0.0
outer loop
vertex -109.274114623729 54.2664565032158 0.0
vertex -109.177580505305 54.1409762353206 -0.125
vertex -109.177580505305 54.1409762353206 0.0
endloop
endfacet
facet normal -0.792590912104292 -0.609753758536744 0.0
outer loop
vertex -109.177580505305 54.1409762353206 -0.125
vertex -109.274114623729 54.2664565032158 0.0
vertex -109.274114623729 54.2664565032158 -0.125
endloop
endfacet
facet normal 0.0 0.0 1.0
outer loop
vertex -108.664011547762 53.7766239633466 -0.1875
vertex -109.330018944939 54.2309146749547 -0.1875
vertex -109.330018944939 53.7766239633466 -0.1875
endloop
endfacet
facet normal 0.0 0.0 1.0
outer loop
vertex -109.330018944939 54.2309146749547 -0.1875
vertex -108.664011547762 53.7766239633466 -0.1875
vertex -109.31384275462 54.2330443108117 -0.1875
endloop
endfacet
facet normal 0.0 0.0 1.0
outer loop
vertex -109.31384275462 54.2330443108117 -0.1875
vertex -108.664011547762 53.7766239633466 -0.1875
vertex -109.177580505305 54.1409762353206 -0.1875
endloop
endfacet
facet normal 0.0 0.0 1.0
outer loop
vertex -109.31384275462 54.2330443108117 -0.1875
vertex -109.177580505305 54.1409762353206 -0.1875
vertex -109.298768944939 54.2392880872182 -0.1875
endloop
endfacet
facet normal 0.0 0.0 1.0
outer loop
vertex -109.298768944939 54.2392880872182 -0.1875
vertex -109.177580505305 54.1409762353206 -0.1875
vertex -109.285824771115 54.2492205011306 -0.1875
endloop
endfacet
facet normal 0.0 0.0 1.0
outer loop
vertex -109.285824771115 54.2492205011306 -0.1875
vertex -109.177580505305 54.1409762353206 -0.1875
vertex -109.275892357202 54.2621646749547 -0.1875
endloop
endfacet
facet normal 0.0 0.0 1.0
outer loop
vertex -109.275892357202 54.2621646749547 -0.1875
vertex -109.177580505305 54.1409762353206 -0.1875
vertex -109.274114623729 54.2664565032158 -0.1875
endloop
endfacet
facet normal 0.0 0.0 1.0
outer loop
vertex -109.177580505305 54.1409762353206 -0.1875
vertex -108.664011547762 53.7766239633466 -0.1875
vertex -109.028969709285 54.2553050650462 -0.1875
endloop
endfacet
facet normal 0.0 0.0 1.0
outer loop
vertex -109.028969709285 54.2553050650462 -0.1875
vertex -108.664011547762 53.7766239633466 -0.1875
vertex -109.017418286413 54.243782517075 -0.1875
endloop
endfacet
facet normal 0.0 0.0 1.0
outer loop
vertex -109.017418286413 54.243782517075 -0.1875
vertex -108.664011547762 53.7766239633466 -0.1875
vertex -109.003278213868 54.2356423186424 -0.1875
endloop
endfacet
facet normal 0.0 0.0 1.0
outer loop
vertex -109.003278213868 54.2356423186424 -0.1875
vertex -108.664011547762 53.7766239633466 -0.1875
vertex -108.987513114225 54.231439210819 -0.1875
endloop
endfacet
facet normal 0.0 0.0 1.0
outer loop
vertex -108.987513114225 54.231439210819 -0.1875
vertex -108.664011547762 53.7766239633466 -0.1875
vertex -108.971197352973 54.2314596284573 -0.1875
endloop
endfacet
facet normal 0.0 0.0 1.0
outer loop
vertex -108.971197352973 54.2314596284573 -0.1875
vertex -108.664011547762 53.7766239633466 -0.1875
vertex -108.955442822277 54.2357021801288 -0.1875
endloop
endfacet
facet normal 0.0 0.0 1.0
outer loop
vertex -108.955442822277 54.2357021801288 -0.1875
vertex -108.664011547762 53.7766239633466 -0.1875
vertex -108.94132316737 54.2438777429482 -0.1875
endloop
endfacet
facet normal 0.0 0.0 1.0
outer loop
vertex -108.94132316737 54.2438777429482 -0.1875
vertex -108.664011547762 53.7766239633466 -0.1875
vertex -108.862159275788 54.1409762353206 -0.1875
endloop
endfacet
facet normal 0.0 0.0 1.0
outer loop
vertex -108.862159275788 54.1409762353206 -0.1875
vertex -108.664011547762 53.7766239633466 -0.1875
vertex -108.713548479768 54.2553050650462 -0.1875
endloop
endfacet
facet normal 0.0 0.0 1.0
outer loop
vertex -108.713548479768 54.2553050650462 -0.1875
vertex -108.664011547762 53.7766239633466 -0.1875
vertex -108.701997056896 54.243782517075 -0.1875
endloop
endfacet
facet normal 0.0 0.0 1.0
outer loop
vertex -108.701997056896 54.243782517075 -0.1875
vertex -108.664011547762 53.7766239633466 -0.1875
vertex -108.687856984351 54.2356423186424 -0.1875
endloop
endfacet
facet normal 0.0 0.0 1.0
outer loop
vertex -108.687856984351 54.2356423186424 -0.1875
vertex -108.664011547762 53.7766239633466 -0.1875
vertex -108.672091884708 54.231439210819 -0.1875
endloop
endfacet
facet normal 0.0 0.0 1.0
outer loop
vertex -108.672091884708 54.231439210819 -0.1875
vertex -108.664011547762 53.7766239633466 -0.1875
vertex -108.664011547762 54.2314493225996 -0.1875
endloop
endfacet
facet normal 0.923879532511634 -0.38268343236425 -0.0
outer loop
vertex -109.274114623729 54.2664565032158 -0.1875
vertex -109.275892357202 54.2621646749547 -0.125
vertex -109.275892357202 54.2621646749547 -0.1875
endloop
endfacet
facet normal 0.866025403784515 -0.499999999999868 0.0
outer loop
vertex -109.275892357202 54.2621646749547 -0.125
vertex -109.274114623729 54.2664565032158 -0.1875
vertex -109.274114623729 54.2664565032158 -0.125
endloop
endfacet
facet normal 0.866025403784515 -0.499999999999868 0.0
outer loop
vertex -109.275892357202 54.2621646749547 -0.1875
vertex -109.285824771115 54.2492205011306 -0.125
vertex -109.285824771115 54.2492205011306 -0.1875
endloop
endfacet
facet normal 0.707106781186397 -0.707106781186698 0.0
outer loop
vertex -109.285824771115 54.2492205011306 -0.125
vertex -109.275892357202 54.2621646749547 -0.1875
vertex -109.275892357202 54.2621646749547 -0.125
endloop
endfacet
facet normal 0.707106781186397 -0.707106781186698 0.0
outer loop
vertex -109.285824771115 54.2492205011306 -0.125
vertex -109.298768944939 54.2392880872182 -0.1875
vertex -109.285824771115 54.2492205011306 -0.1875
endloop
endfacet
facet normal 0.500000000000086 -0.866025403784389 0.0
outer loop
vertex -109.298768944939 54.2392880872182 -0.1875
vertex -109.285824771115 54.2492205011306 -0.125
vertex -109.298768944939 54.2392880872182 -0.125
endloop
endfacet
facet normal 0.500000000000086 -0.866025403784389 0.0
outer loop
vertex -109.298768944939 54.2392880872182 -0.125
vertex -109.31384275462 54.2330443108117 -0.1875
vertex -109.298768944939 54.2392880872182 -0.1875
endloop
endfacet
facet normal 0.258819045102506 -0.965925826289072 0.0
outer loop
vertex -109.31384275462 54.2330443108117 -0.1875
vertex -109.298768944939 54.2392880872182 -0.125
vertex -109.31384275462 54.2330443108117 -0.125
endloop
endfacet
facet normal 0.258819045102506 -0.965925826289072 0.0
outer loop
vertex -109.31384275462 54.2330443108117 -0.125
vertex -109.330018944939 54.2309146749547 -0.1875
vertex -109.31384275462 54.2330443108117 -0.1875
endloop
endfacet
facet normal 0.130526192219999 -0.991444861373817 0.0
outer loop
vertex -109.330018944939 54.2309146749547 -0.1875
vertex -109.31384275462 54.2330443108117 -0.125
vertex -109.330018944939 54.2309146749547 -0.125
endloop
endfacet
facet normal -0.0 1.0 -0.0
outer loop
vertex -109.330018944939 53.7766239633466 -0.125
vertex -108.664011547762 53.7766239633466 -0.1875
vertex -109.330018944939 53.7766239633466 -0.1875
endloop
endfacet
facet normal -0.0 1.0 -0.0
outer loop
vertex -108.664011547762 53.7766239633466 -0.1875
vertex -109.330018944939 53.7766239633466 -0.125
vertex -108.664011547762 53.7766239633466 -0.125
endloop
endfacet
facet normal 0.00125140481815336 -0.999999216992684 0.0
outer loop
vertex -108.664011547762 54.2314493225996 -0.125
vertex -108.672091884708 54.231439210819 -0.1875
vertex -108.664011547762 54.2314493225996 -0.1875
endloop
endfacet
facet normal -0.129285391140468 -0.991607426171091 0.0
outer loop
vertex -108.672091884708 54.231439210819 -0.1875
vertex -108.664011547762 54.2314493225996 -0.125
vertex -108.672091884708 54.231439210819 -0.125
endloop
endfacet
facet normal -0.129285391140468 -0.991607426171091 0.0
outer loop
vertex -108.672091884708 54.231439210819 -0.125
vertex -108.687856984351 54.2356423186424 -0.1875
vertex -108.672091884708 54.231439210819 -0.1875
endloop
endfacet
facet normal -0.381526985422712 -0.924357700997973 0.0
outer loop
vertex -108.687856984351 54.2356423186424 -0.1875
vertex -108.672091884708 54.231439210819 -0.125
vertex -108.687856984351 54.2356423186424 -0.125
endloop
endfacet
facet normal -0.381526985422712 -0.924357700997973 0.0
outer loop
vertex -108.687856984351 54.2356423186424 -0.125
vertex -108.701997056896 54.243782517075 -0.1875
vertex -108.687856984351 54.2356423186424 -0.1875
endloop
endfacet
facet normal -0.607768146151435 -0.794114526075205 0.0
outer loop
vertex -108.701997056896 54.243782517075 -0.1875
vertex -108.687856984351 54.2356423186424 -0.125
vertex -108.701997056896 54.243782517075 -0.125
endloop
endfacet
facet normal -0.607768146151435 -0.794114526075205 0.0
outer loop
vertex -108.701997056896 54.243782517075 -0.125
vertex -108.713548479768 54.2553050650462 -0.1875
vertex -108.701997056896 54.243782517075 -0.1875
endloop
endfacet
facet normal -0.706221350683548 -0.70799110434998 0.0
outer loop
vertex -108.713548479768 54.2553050650462 -0.1875
vertex -108.701997056896 54.243782517075 -0.125
vertex -108.713548479768 54.2553050650462 -0.125
endloop
endfacet
facet normal 0.501083356859209 -0.865399023271177 0.0
outer loop
vertex -108.94132316737 54.2438777429482 -0.125
vertex -108.955442822277 54.2357021801288 -0.1875
vertex -108.94132316737 54.2438777429482 -0.1875
endloop
endfacet
facet normal 0.383839280019631 -0.923399917215727 0.0
outer loop
vertex -108.955442822277 54.2357021801288 -0.1875
vertex -108.94132316737 54.2438777429482 -0.125
vertex -108.955442822277 54.2357021801288 -0.125
endloop
endfacet
facet normal 0.383839280019631 -0.923399917215727 0.0
outer loop
vertex -108.955442822277 54.2357021801288 -0.125
vertex -108.971197352973 54.2314596284573 -0.1875
vertex -108.955442822277 54.2357021801288 -0.1875
endloop
endfacet
facet normal 0.131766788893764 -0.991280743959362 0.0
outer loop
vertex -108.971197352973 54.2314596284573 -0.1875
vertex -108.955442822277 54.2357021801288 -0.125
vertex -108.971197352973 54.2314596284573 -0.125
endloop
endfacet
facet normal 0.131766788893764 -0.991280743959362 0.0
outer loop
vertex -108.971197352973 54.2314596284573 -0.125
vertex -108.987513114225 54.231439210819 -0.1875
vertex -108.971197352973 54.2314596284573 -0.1875
endloop
endfacet
facet normal -0.129285391140387 -0.991607426171102 0.0
outer loop
vertex -108.987513114225 54.231439210819 -0.1875
vertex -108.971197352973 54.2314596284573 -0.125
vertex -108.987513114225 54.231439210819 -0.125
endloop
endfacet
facet normal -0.129285391140387 -0.991607426171102 0.0
outer loop
vertex -108.987513114225 54.231439210819 -0.125
vertex -109.003278213868 54.2356423186424 -0.1875
vertex -108.987513114225 54.231439210819 -0.1875
endloop
endfacet
facet normal -0.381526985422712 -0.924357700997973 0.0
outer loop
vertex -109.003278213868 54.2356423186424 -0.1875
vertex -108.987513114225 54.231439210819 -0.125
vertex -109.003278213868 54.2356423186424 -0.125
endloop
endfacet
facet normal -0.381526985422712 -0.924357700997973 0.0
outer loop
vertex -109.003278213868 54.2356423186424 -0.125
vertex -109.017418286413 54.243782517075 -0.1875
vertex -109.003278213868 54.2356423186424 -0.1875
endloop
endfacet
facet normal -0.607768146151433 -0.794114526075206 -6.36127177252177e-16
outer loop
vertex -109.017418286413 54.243782517075 -0.1875
vertex -109.003278213868 54.2356423186424 -0.125
vertex -109.017418286413 54.243782517075 -0.125
endloop
endfacet
facet normal -0.607768146151433 -0.794114526075206 -6.36127177252176e-16
outer loop
vertex -109.017418286413 54.243782517075 -0.125
vertex -109.028969709285 54.2553050650462 -0.1875
vertex -109.017418286413 54.243782517075 -0.1875
endloop
endfacet
facet normal -0.706221350683545 -0.707991104349983 -1.26137004213384e-15
outer loop
vertex -109.028969709285 54.2553050650462 -0.1875
vertex -109.017418286413 54.243782517075 -0.125
vertex -109.02783249723 54.2541706956615 -0.125
endloop
endfacet
facet normal -0.706221350683545 -0.707991104349983 -1.26137004213384e-15
outer loop
vertex -109.028969709285 54.2553050650462 -0.125
vertex -109.028969709285 54.2553050650462 -0.1875
vertex -109.02783249723 54.2541706956615 -0.125
endloop
endfacet
facet normal -0.792590912104292 -0.609753758536744 0.0
outer loop
vertex -109.274114623729 54.2664565032158 -0.125
vertex -109.177580505305 54.1409762353206 -0.1875
vertex -109.177580505305 54.1409762353206 -0.125
endloop
endfacet
facet normal -0.792590912104292 -0.609753758536744 0.0
outer loop
vertex -109.177580505305 54.1409762353206 -0.1875
vertex -109.274114623729 54.2664565032158 -0.125
vertex -109.274114623729 54.2664565032158 -0.1875
endloop
endfacet
facet normal 0.609753758536735 -0.792590912104299 0.0
outer loop
vertex -109.028969709285 54.2553050650462 -0.125
vertex -109.177580505305 54.1409762353206 -0.1875
vertex -109.028969709285 54.2553050650462 -0.1875
endloop
endfacet
facet normal 0.609753758536735 -0.792590912104299 0.0
outer loop
vertex -109.177580505305 54.1409762353206 -0.1875
vertex -109.028969709285 54.2553050650462 -0.125
vertex -109.177580505305 54.1409762353206 -0.125
endloop
endfacet
facet normal 1.0 -0.0 -0.0
outer loop
vertex -109.330018944939 54.2309146749547 -0.1875
vertex -109.330018944939 53.7766239633466 -0.125
vertex -109.330018944939 53.7766239633466 -0.1875
endloop
endfacet
facet normal 1.0 -0.0 -0.0
outer loop
vertex -109.330018944939 53.7766239633466 -0.125
vertex -109.330018944939 54.2309146749547 -0.1875
vertex -109.330018944939 54.2309146749547 -0.125
endloop
endfacet
facet normal -1.0 0.0 0.0
outer loop
vertex -108.664011547762 54.2314493225996 -0.125
vertex -108.664011547762 53.7766239633466 -0.1875
vertex -108.664011547762 53.7766239633466 -0.125
endloop
endfacet
facet normal -1.0 0.0 0.0
outer loop
vertex -108.664011547762 53.7766239633466 -0.1875
vertex -108.664011547762 54.2314493225996 -0.125
vertex -108.664011547762 54.2314493225996 -0.1875
endloop
endfacet
facet normal 0.609753758536735 -0.792590912104299 0.0
outer loop
vertex -108.713548479768 54.2553050650462 -0.125
vertex -108.862159275788 54.1409762353206 -0.1875
vertex -108.713548479768 54.2553050650462 -0.1875
endloop
endfacet
facet normal 0.609753758536735 -0.792590912104299 0.0
outer loop
vertex -108.862159275788 54.1409762353206 -0.1875
vertex -108.713548479768 54.2553050650462 -0.125
vertex -108.862159275788 54.1409762353206 -0.125
endloop
endfacet
facet normal -0.792590912104307 -0.609753758536725 0.0
outer loop
vertex -108.94132316737 54.2438777429482 -0.125
vertex -108.862159275788 54.1409762353206 -0.1875
vertex -108.862159275788 54.1409762353206 -0.125
endloop
endfacet
facet normal -0.792590912104307 -0.609753758536725 0.0
outer loop
vertex -108.862159275788 54.1409762353206 -0.1875
vertex -108.94132316737 54.2438777429482 -0.125
vertex -108.94132316737 54.2438777429482 -0.1875
endloop
endfacet
facet normal 0.609753758536735 -0.792590912104299 0.0
outer loop
vertex -108.713548479768 54.2553050650462 0.0
vertex -108.862159275788 54.1409762353206 -0.125
vertex -108.713548479768 54.2553050650462 -0.125
endloop
endfacet
facet normal 0.609753758536735 -0.792590912104299 0.0
outer loop
vertex -108.862159275788 54.1409762353206 -0.125
vertex -108.713548479768 54.2553050650462 0.0
vertex -108.862159275788 54.1409762353206 0.0
endloop
endfacet
facet normal 0.609753758536735 -0.792590912104299 0.0
outer loop
vertex -109.028969709285 54.2553050650462 0.0
vertex -109.177580505305 54.1409762353206 -0.125
vertex -109.028969709285 54.2553050650462 -0.125
endloop
endfacet
facet normal 0.609753758536735 -0.792590912104299 0.0
outer loop
vertex -109.177580505305 54.1409762353206 -0.125
vertex -109.028969709285 54.2553050650462 0.0
vertex -109.177580505305 54.1409762353206 0.0
endloop
endfacet
facet normal 1.0 -0.0 -0.0
outer loop
vertex -109.330018944939 54.2309146749547 -0.125
vertex -109.330018944939 53.7766239633466 0.0
vertex -109.330018944939 53.7766239633466 -0.125
endloop
endfacet
facet normal 1.0 -0.0 -0.0
outer loop
vertex -109.330018944939 53.7766239633466 0.0
vertex -109.330018944939 54.2309146749547 -0.125
vertex -109.330018944939 54.2309146749547 0.0
endloop
endfacet
facet normal -5.6368512931896e-17 -9.51748993160557e-17 1.0
outer loop
vertex -109.041387823776 54.2851792506489 -0.125
vertex -109.037205133591 54.3172601115437 -0.125
vertex -109.041408241414 54.301495011901 -0.125
endloop
endfacet
facet normal -5.6368512931896e-17 -9.51748993160557e-17 1.0
outer loop
vertex -109.037205133591 54.3172601115437 -0.125
vertex -109.041387823776 54.2851792506489 -0.125
vertex -109.037145272105 54.2694247199535 -0.125
endloop
endfacet
facet normal -5.6368512931896e-17 -9.51748993160557e-17 1.0
outer loop
vertex -109.037205133591 54.3172601115437 -0.125
vertex -109.037145272105 54.2694247199535 -0.125
vertex -109.029064935158 54.3314001840892 -0.125
endloop
endfacet
facet normal -5.6368512931896e-17 -9.51748993160557e-17 1.0
outer loop
vertex -109.029064935158 54.3314001840892 -0.125
vertex -109.037145272105 54.2694247199535 -0.125
vertex -109.028969709285 54.2553050650462 -0.125
endloop
endfacet
facet normal -5.6368512931896e-17 -9.51748993160557e-17 1.0
outer loop
vertex -109.029064935158 54.3314001840892 -0.125
vertex -109.028969709285 54.2553050650462 -0.125
vertex -109.017542387187 54.3429516069613 -0.125
endloop
endfacet
facet normal -5.6368512931896e-17 -9.51748993160557e-17 1.0
outer loop
vertex -109.017542387187 54.3429516069613 -0.125
vertex -109.028969709285 54.2553050650462 -0.125
vertex -109.02702358932 54.256802248455 -0.125
endloop
endfacet
facet normal -5.6368512931896e-17 -9.51748993160557e-17 1.0
outer loop
vertex -109.017542387187 54.3429516069613 -0.125
vertex -109.02702358932 54.256802248455 -0.125
vertex -108.979432777279 54.2934146749547 -0.125
endloop
endfacet
facet normal -5.6368512931896e-17 -9.51748993160557e-17 1.0
outer loop
vertex -109.017542387187 54.3429516069613 -0.125
vertex -108.979432777279 54.2934146749547 -0.125
vertex -109.00342273228 54.3511271697807 -0.125
endloop
endfacet
facet normal -5.6368512931896e-17 -9.51748993160557e-17 1.0
outer loop
vertex -109.00342273228 54.3511271697807 -0.125
vertex -108.979432777279 54.2934146749547 -0.125
vertex -108.987668201585 54.3553697214522 -0.125
endloop
endfacet
facet normal -5.6368512931896e-17 -9.51748993160557e-17 1.0
outer loop
vertex -108.987668201585 54.3553697214522 -0.125
vertex -108.979432777279 54.2934146749547 -0.125
vertex -108.971352440332 54.3553901390904 -0.125
endloop
endfacet
facet normal -5.6368512931896e-17 -9.51748993160557e-17 1.0
outer loop
vertex -108.971352440332 54.3553901390904 -0.125
vertex -108.979432777279 54.2934146749547 -0.125
vertex -108.94132316737 54.2438777429482 -0.125
endloop
endfacet
facet normal -5.6368512931896e-17 -9.51748993160557e-17 1.0
outer loop
vertex -108.971352440332 54.3553901390904 -0.125
vertex -108.94132316737 54.2438777429482 -0.125
vertex -108.95558734069 54.3511870312671 -0.125
endloop
endfacet
facet normal -5.6368512931896e-17 -9.51748993160557e-17 1.0
outer loop
vertex -108.95558734069 54.3511870312671 -0.125
vertex -108.94132316737 54.2438777429482 -0.125
vertex -108.941447268144 54.3430468328344 -0.125
endloop
endfacet
facet normal -5.6368512931896e-17 -9.51748993160557e-17 1.0
outer loop
vertex -108.941447268144 54.3430468328344 -0.125
vertex -108.94132316737 54.2438777429482 -0.125
vertex -108.929895845272 54.3315242848633 -0.125
endloop
endfacet
facet normal -5.6368512931896e-17 -9.51748993160557e-17 1.0
outer loop
vertex -108.929895845272 54.3315242848633 -0.125
vertex -108.94132316737 54.2438777429482 -0.125
vertex -108.929800619399 54.2554291658203 -0.125
endloop
endfacet
facet normal -5.6368512931896e-17 -9.51748993160557e-17 1.0
outer loop
vertex -108.929895845272 54.3315242848633 -0.125
vertex -108.929800619399 54.2554291658203 -0.125
vertex -108.921720282453 54.317404629956 -0.125
endloop
endfacet
facet normal -5.6368512931896e-17 -9.51748993160557e-17 1.0
outer loop
vertex -108.921720282453 54.317404629956 -0.125
vertex -108.929800619399 54.2554291658203 -0.125
vertex -108.921660420966 54.2695692383658 -0.125
endloop
endfacet
facet normal -5.6368512931896e-17 -9.51748993160557e-17 1.0
outer loop
vertex -108.921720282453 54.317404629956 -0.125
vertex -108.921660420966 54.2695692383658 -0.125
vertex -108.917477730781 54.3016500992606 -0.125
endloop
endfacet
facet normal -5.6368512931896e-17 -9.51748993160557e-17 1.0
outer loop
vertex -108.917477730781 54.3016500992606 -0.125
vertex -108.921660420966 54.2695692383658 -0.125
vertex -108.917457313143 54.2853343380085 -0.125
endloop
endfacet
facet normal -0.794114526075293 0.607768146151321 0.0
outer loop
vertex -108.929800619399 54.2554291658203 0.0
vertex -108.94132316737 54.2438777429482 -0.125
vertex -108.94132316737 54.2438777429482 0.0
endloop
endfacet
facet normal -0.707991104349763 0.706221350683766 0.0
outer loop
vertex -108.94132316737 54.2438777429482 -0.125
vertex -108.929800619399 54.2554291658203 0.0
vertex -108.929800619399 54.2554291658203 -0.125
endloop
endfacet
facet normal -0.924357700997926 0.381526985422826 0.0
outer loop
vertex -108.921660420966 54.2695692383658 0.0
vertex -108.929800619399 54.2554291658203 -0.125
vertex -108.929800619399 54.2554291658203 0.0
endloop
endfacet
facet normal -0.794114526075293 0.607768146151321 0.0
outer loop
vertex -108.929800619399 54.2554291658203 -0.125
vertex -108.921660420966 54.2695692383658 0.0
vertex -108.921660420966 54.2695692383658 -0.125
endloop
endfacet
facet normal -0.991607426171076 0.129285391140589 0.0
outer loop
vertex -108.917457313143 54.2853343380085 0.0
vertex -108.921660420966 54.2695692383658 -0.125
vertex -108.921660420966 54.2695692383658 0.0
endloop
endfacet
facet normal -0.924357700997926 0.381526985422826 0.0
outer loop
vertex -108.921660420966 54.2695692383658 -0.125
vertex -108.917457313143 54.2853343380085 0.0
vertex -108.917457313143 54.2853343380085 -0.125
endloop
endfacet
facet normal -0.991280743959326 -0.131766788894036 0.0
outer loop
vertex -108.917477730781 54.3016500992606 0.0
vertex -108.917457313143 54.2853343380085 -0.125
vertex -108.917457313143 54.2853343380085 0.0
endloop
endfacet
facet normal -0.991607426171076 0.129285391140589 0.0
outer loop
vertex -108.917457313143 54.2853343380085 -0.125
vertex -108.917477730781 54.3016500992606 0.0
vertex -108.917477730781 54.3016500992606 -0.125
endloop
endfacet
facet normal -0.923399917215705 -0.383839280019683 0.0
outer loop
vertex -108.921720282453 54.317404629956 0.0
vertex -108.917477730781 54.3016500992606 -0.125
vertex -108.917477730781 54.3016500992606 0.0
endloop
endfacet
facet normal -0.991280743959326 -0.131766788894036 0.0
outer loop
vertex -108.917477730781 54.3016500992606 -0.125
vertex -108.921720282453 54.317404629956 0.0
vertex -108.921720282453 54.317404629956 -0.125
endloop
endfacet
facet normal -0.792590912104298 -0.609753758536736 0.0
outer loop
vertex -108.929895845272 54.3315242848633 0.0
vertex -108.921720282453 54.317404629956 -0.125
vertex -108.921720282453 54.317404629956 0.0
endloop
endfacet
facet normal -0.923399917215705 -0.383839280019683 0.0
outer loop
vertex -108.921720282453 54.317404629956 -0.125
vertex -108.929895845272 54.3315242848633 0.0
vertex -108.929895845272 54.3315242848633 -0.125
endloop
endfacet
facet normal -0.792590912104298 -0.609753758536736 0.0
outer loop
vertex -108.929895845272 54.3315242848633 0.0
vertex -108.941447268144 54.3430468328344 -0.125
vertex -108.929895845272 54.3315242848633 -0.125
endloop
endfacet
facet normal -0.607768146151435 -0.794114526075205 0.0
outer loop
vertex -108.941447268144 54.3430468328344 -0.125
vertex -108.929895845272 54.3315242848633 0.0
vertex -108.941447268144 54.3430468328344 0.0
endloop
endfacet
facet normal -0.607768146151435 -0.794114526075205 0.0
outer loop
vertex -108.941447268144 54.3430468328344 0.0
vertex -108.95558734069 54.3511870312671 -0.125
vertex -108.941447268144 54.3430468328344 -0.125
endloop
endfacet
facet normal -0.381526985422712 -0.924357700997973 0.0
outer loop
vertex -108.95558734069 54.3511870312671 -0.125
vertex -108.941447268144 54.3430468328344 0.0
vertex -108.95558734069 54.3511870312671 0.0
endloop
endfacet
facet normal -0.381526985422712 -0.924357700997973 0.0
outer loop
vertex -108.95558734069 54.3511870312671 0.0
vertex -108.971352440332 54.3553901390904 -0.125
vertex -108.95558734069 54.3511870312671 -0.125
endloop
endfacet
facet normal -0.129285391140387 -0.991607426171102 0.0
outer loop
vertex -108.971352440332 54.3553901390904 -0.125
vertex -108.95558734069 54.3511870312671 0.0
vertex -108.971352440332 54.3553901390904 0.0
endloop
endfacet
facet normal -0.129285391140387 -0.991607426171102 0.0
outer loop
vertex -108.971352440332 54.3553901390904 0.0
vertex -108.987668201585 54.3553697214522 -0.125
vertex -108.971352440332 54.3553901390904 -0.125
endloop
endfacet
facet normal 0.131766788893764 -0.991280743959362 0.0
outer loop
vertex -108.987668201585 54.3553697214522 -0.125
vertex -108.971352440332 54.3553901390904 0.0
vertex -108.987668201585 54.3553697214522 0.0
endloop
endfacet
facet normal 0.131766788893764 -0.991280743959362 0.0
outer loop
vertex -108.987668201585 54.3553697214522 0.0
vertex -109.00342273228 54.3511271697807 -0.125
vertex -108.987668201585 54.3553697214522 -0.125
endloop
endfacet
facet normal 0.383839280019631 -0.923399917215727 0.0
outer loop
vertex -109.00342273228 54.3511271697807 -0.125
vertex -108.987668201585 54.3553697214522 0.0
vertex -109.00342273228 54.3511271697807 0.0
endloop
endfacet
facet normal 0.383839280019631 -0.923399917215727 0.0
outer loop
vertex -109.00342273228 54.3511271697807 0.0
vertex -109.017542387187 54.3429516069613 -0.125
vertex -109.00342273228 54.3511271697807 -0.125
endloop
endfacet
facet normal 0.609753758536614 -0.792590912104392 0.0
outer loop
vertex -109.017542387187 54.3429516069613 -0.125
vertex -109.00342273228 54.3511271697807 0.0
vertex -109.017542387187 54.3429516069613 0.0
endloop
endfacet
facet normal 0.609753758536614 -0.792590912104392 0.0
outer loop
vertex -109.017542387187 54.3429516069613 -0.125
vertex -109.029064935158 54.3314001840892 0.0
vertex -109.029064935158 54.3314001840892 -0.125
endloop
endfacet
facet normal 0.794114526075293 -0.607768146151321 0.0
outer loop
vertex -109.029064935158 54.3314001840892 0.0
vertex -109.017542387187 54.3429516069613 -0.125
vertex -109.017542387187 54.3429516069613 0.0
endloop
endfacet
facet normal 0.794114526075293 -0.607768146151321 0.0
outer loop
vertex -109.029064935158 54.3314001840892 -0.125
vertex -109.037205133591 54.3172601115437 0.0
vertex -109.037205133591 54.3172601115437 -0.125
endloop
endfacet
facet normal 0.924357700997926 -0.381526985422826 0.0
outer loop
vertex -109.037205133591 54.3172601115437 0.0
vertex -109.029064935158 54.3314001840892 -0.125
vertex -109.029064935158 54.3314001840892 0.0
endloop
endfacet
facet normal 0.924357700997926 -0.381526985422826 0.0
outer loop
vertex -109.037205133591 54.3172601115437 -0.125
vertex -109.041408241414 54.301495011901 0.0
vertex -109.041408241414 54.301495011901 -0.125
endloop
endfacet
facet normal 0.991607426171076 -0.129285391140589 0.0
outer loop
vertex -109.041408241414 54.301495011901 0.0
vertex -109.037205133591 54.3172601115437 -0.125
vertex -109.037205133591 54.3172601115437 0.0
endloop
endfacet
facet normal 0.991607426171076 -0.129285391140589 0.0
outer loop
vertex -109.041408241414 54.301495011901 -0.125
vertex -109.041387823776 54.2851792506489 0.0
vertex -109.041387823776 54.2851792506489 -0.125
endloop
endfacet
facet normal 0.991280743959326 0.131766788894036 0.0
outer loop
vertex -109.041387823776 54.2851792506489 0.0
vertex -109.041408241414 54.301495011901 -0.125
vertex -109.041408241414 54.301495011901 0.0
endloop
endfacet
facet normal 0.991280743959326 0.131766788894036 0.0
outer loop
vertex -109.041387823776 54.2851792506489 -0.125
vertex -109.037145272105 54.2694247199535 0.0
vertex -109.037145272105 54.2694247199535 -0.125
endloop
endfacet
facet normal 0.923399917215705 0.383839280019683 0.0
outer loop
vertex -109.037145272105 54.2694247199535 0.0
vertex -109.041387823776 54.2851792506489 -0.125
vertex -109.041387823776 54.2851792506489 0.0
endloop
endfacet
facet normal 0.923399917215705 0.383839280019683 0.0
outer loop
vertex -109.037145272105 54.2694247199535 -0.125
vertex -109.028969709285 54.2553050650462 0.0
vertex -109.028969709285 54.2553050650462 -0.125
endloop
endfacet
facet normal 0.865399023271177 0.501083356859209 -0.0
outer loop
vertex -109.028969709285 54.2553050650462 0.0
vertex -109.037145272105 54.2694247199535 -0.125
vertex -109.037145272105 54.2694247199535 0.0
endloop
endfacet
facet normal -0.0 -0.0 1.0
outer loop
vertex -108.655776123456 54.2314596284573 -0.125
vertex -108.664011547762 54.2934146749547 -0.125
vertex -108.664011547762 54.2314493225996 -0.125
endloop
endfacet
facet normal -0.0 -0.0 1.0
outer loop
vertex -108.664011547762 54.2934146749547 -0.125
vertex -108.655776123456 54.2314596284573 -0.125
vertex -108.655931210815 54.3553901390904 -0.125
endloop
endfacet
facet normal -0.0 -0.0 1.0
outer loop
vertex -108.655931210815 54.3553901390904 -0.125
vertex -108.655776123456 54.2314596284573 -0.125
vertex -108.640166111173 54.3511870312671 -0.125
endloop
endfacet
facet normal -0.0 -0.0 1.0
outer loop
vertex -108.640166111173 54.3511870312671 -0.125
vertex -108.655776123456 54.2314596284573 -0.125
vertex -108.64002159276 54.2357021801288 -0.125
endloop
endfacet
facet normal -0.0 -0.0 1.0
outer loop
vertex -108.640166111173 54.3511870312671 -0.125
vertex -108.64002159276 54.2357021801288 -0.125
vertex -108.626026038627 54.3430468328344 -0.125
endloop
endfacet
facet normal -0.0 -0.0 1.0
outer loop
vertex -108.626026038627 54.3430468328344 -0.125
vertex -108.64002159276 54.2357021801288 -0.125
vertex -108.625901937853 54.2438777429482 -0.125
endloop
endfacet
facet normal -0.0 -0.0 1.0
outer loop
vertex -108.626026038627 54.3430468328344 -0.125
vertex -108.625901937853 54.2438777429482 -0.125
vertex -108.614474615755 54.3315242848633 -0.125
endloop
endfacet
facet normal -0.0 -0.0 1.0
outer loop
vertex -108.614474615755 54.3315242848633 -0.125
vertex -108.625901937853 54.2438777429482 -0.125
vertex -108.614379389882 54.2554291658203 -0.125
endloop
endfacet
facet normal -0.0 -0.0 1.0
outer loop
vertex -108.614474615755 54.3315242848633 -0.125
vertex -108.614379389882 54.2554291658203 -0.125
vertex -108.606299052936 54.317404629956 -0.125
endloop
endfacet
facet normal -0.0 -0.0 1.0
outer loop
vertex -108.606299052936 54.317404629956 -0.125
vertex -108.614379389882 54.2554291658203 -0.125
vertex -108.606239191449 54.2695692383658 -0.125
endloop
endfacet
facet normal -0.0 -0.0 1.0
outer loop
vertex -108.606299052936 54.317404629956 -0.125
vertex -108.606239191449 54.2695692383658 -0.125
vertex -108.602056501264 54.3016500992606 -0.125
endloop
endfacet
facet normal -0.0 -0.0 1.0
outer loop
vertex -108.602056501264 54.3016500992606 -0.125
vertex -108.606239191449 54.2695692383658 -0.125
vertex -108.602036083626 54.2853343380085 -0.125
endloop
endfacet
facet normal -0.0 -0.0 1.0
outer loop
vertex -108.725966594259 54.2851792506489 -0.125
vertex -108.721783904074 54.3172601115437 -0.125
vertex -108.725987011897 54.301495011901 -0.125
endloop
endfacet
facet normal -0.0 -0.0 1.0
outer loop
vertex -108.721783904074 54.3172601115437 -0.125
vertex -108.725966594259 54.2851792506489 -0.125
vertex -108.721724042588 54.2694247199535 -0.125
endloop
endfacet
facet normal -0.0 -0.0 1.0
outer loop
vertex -108.721783904074 54.3172601115437 -0.125
vertex -108.721724042588 54.2694247199535 -0.125
vertex -108.713643705641 54.3314001840892 -0.125
endloop
endfacet
facet normal -0.0 -0.0 1.0
outer loop
vertex -108.713643705641 54.3314001840892 -0.125
vertex -108.721724042588 54.2694247199535 -0.125
vertex -108.713548479768 54.2553050650462 -0.125
endloop
endfacet
facet normal -0.0 -0.0 1.0
outer loop
vertex -108.713643705641 54.3314001840892 -0.125
vertex -108.713548479768 54.2553050650462 -0.125
vertex -108.70212115767 54.3429516069613 -0.125
endloop
endfacet
facet normal -0.0 -0.0 1.0
outer loop
vertex -108.70212115767 54.3429516069613 -0.125
vertex -108.713548479768 54.2553050650462 -0.125
vertex -108.664011547762 54.2934146749547 -0.125
endloop
endfacet
facet normal -0.0 -0.0 1.0
outer loop
vertex -108.70212115767 54.3429516069613 -0.125
vertex -108.664011547762 54.2934146749547 -0.125
vertex -108.688001502763 54.3511271697807 -0.125
endloop
endfacet
facet normal -0.0 -0.0 1.0
outer loop
vertex -108.688001502763 54.3511271697807 -0.125
vertex -108.664011547762 54.2934146749547 -0.125
vertex -108.672246972067 54.3553697214522 -0.125
endloop
endfacet
facet normal -0.0 -0.0 1.0
outer loop
vertex -108.672246972067 54.3553697214522 -0.125
vertex -108.664011547762 54.2934146749547 -0.125
vertex -108.655931210815 54.3553901390904 -0.125
endloop
endfacet
facet normal -0.00125140481847597 0.999999216992684 -0.0
outer loop
vertex -108.664011547762 54.2314493225996 0.0
vertex -108.655776123456 54.2314596284573 -0.125
vertex -108.664011547762 54.2314493225996 -0.125
endloop
endfacet
facet normal -0.131766788893843 0.991280743959352 0.0
outer loop
vertex -108.655776123456 54.2314596284573 -0.125
vertex -108.664011547762 54.2314493225996 0.0
vertex -108.655776123456 54.2314596284573 0.0
endloop
endfacet
facet normal -0.131766788893843 0.991280743959352 0.0
outer loop
vertex -108.655776123456 54.2314596284573 0.0
vertex -108.64002159276 54.2357021801288 -0.125
vertex -108.655776123456 54.2314596284573 -0.125
endloop
endfacet
facet normal -0.383839280019631 0.923399917215727 0.0
outer loop
vertex -108.64002159276 54.2357021801288 -0.125
vertex -108.655776123456 54.2314596284573 0.0
vertex -108.64002159276 54.2357021801288 0.0
endloop
endfacet
facet normal -0.383839280019631 0.923399917215727 0.0
outer loop
vertex -108.64002159276 54.2357021801288 0.0
vertex -108.625901937853 54.2438777429482 -0.125
vertex -108.64002159276 54.2357021801288 -0.125
endloop
endfacet
facet normal -0.609753758536614 0.792590912104392 0.0
outer loop
vertex -108.625901937853 54.2438777429482 -0.125
vertex -108.64002159276 54.2357021801288 0.0
vertex -108.625901937853 54.2438777429482 0.0
endloop
endfacet
facet normal -0.794114526075293 0.607768146151321 0.0
outer loop
vertex -108.614379389882 54.2554291658203 0.0
vertex -108.625901937853 54.2438777429482 -0.125
vertex -108.625901937853 54.2438777429482 0.0
endloop
endfacet
facet normal -0.609753758536614 0.792590912104392 0.0
outer loop
vertex -108.625901937853 54.2438777429482 -0.125
vertex -108.614379389882 54.2554291658203 0.0
vertex -108.614379389882 54.2554291658203 -0.125
endloop
endfacet
facet normal -0.924357700997926 0.381526985422826 0.0
outer loop
vertex -108.606239191449 54.2695692383658 0.0
vertex -108.614379389882 54.2554291658203 -0.125
vertex -108.614379389882 54.2554291658203 0.0
endloop
endfacet
facet normal -0.794114526075293 0.607768146151321 0.0
outer loop
vertex -108.614379389882 54.2554291658203 -0.125
vertex -108.606239191449 54.2695692383658 0.0
vertex -108.606239191449 54.2695692383658 -0.125
endloop
endfacet
facet normal -0.991607426171076 0.129285391140589 0.0
outer loop
vertex -108.602036083626 54.2853343380085 0.0
vertex -108.606239191449 54.2695692383658 -0.125
vertex -108.606239191449 54.2695692383658 0.0
endloop
endfacet
facet normal -0.924357700997926 0.381526985422826 0.0
outer loop
vertex -108.606239191449 54.2695692383658 -0.125
vertex -108.602036083626 54.2853343380085 0.0
vertex -108.602036083626 54.2853343380085 -0.125
endloop
endfacet
facet normal -0.991280743959326 -0.131766788894036 0.0
outer loop
vertex -108.602056501264 54.3016500992606 0.0
vertex -108.602036083626 54.2853343380085 -0.125
vertex -108.602036083626 54.2853343380085 0.0
endloop
endfacet
facet normal -0.991607426171076 0.129285391140589 0.0
outer loop
vertex -108.602036083626 54.2853343380085 -0.125
vertex -108.602056501264 54.3016500992606 0.0
vertex -108.602056501264 54.3016500992606 -0.125
endloop
endfacet
facet normal -0.923399917215705 -0.383839280019683 0.0
outer loop
vertex -108.606299052936 54.317404629956 0.0
vertex -108.602056501264 54.3016500992606 -0.125
vertex -108.602056501264 54.3016500992606 0.0
endloop
endfacet
facet normal -0.991280743959326 -0.131766788894036 0.0
outer loop
vertex -108.602056501264 54.3016500992606 -0.125
vertex -108.606299052936 54.317404629956 0.0
vertex -108.606299052936 54.317404629956 -0.125
endloop
endfacet
facet normal -0.792590912104298 -0.609753758536736 0.0
outer loop
vertex -108.614474615755 54.3315242848633 0.0
vertex -108.606299052936 54.317404629956 -0.125
vertex -108.606299052936 54.317404629956 0.0
endloop
endfacet
facet normal -0.923399917215705 -0.383839280019683 0.0
outer loop
vertex -108.606299052936 54.317404629956 -0.125
vertex -108.614474615755 54.3315242848633 0.0
vertex -108.614474615755 54.3315242848633 -0.125
endloop
endfacet
facet normal -0.792590912104298 -0.609753758536736 0.0
outer loop
vertex -108.614474615755 54.3315242848633 0.0
vertex -108.626026038627 54.3430468328344 -0.125
vertex -108.614474615755 54.3315242848633 -0.125
endloop
endfacet
facet normal -0.607768146151435 -0.794114526075205 0.0
outer loop
vertex -108.626026038627 54.3430468328344 -0.125
vertex -108.614474615755 54.3315242848633 0.0
vertex -108.626026038627 54.3430468328344 0.0
endloop
endfacet
facet normal -0.607768146151435 -0.794114526075205 0.0
outer loop
vertex -108.626026038627 54.3430468328344 0.0
vertex -108.640166111173 54.3511870312671 -0.125
vertex -108.626026038627 54.3430468328344 -0.125
endloop
endfacet
facet normal -0.381526985422712 -0.924357700997973 0.0
outer loop
vertex -108.640166111173 54.3511870312671 -0.125
vertex -108.626026038627 54.3430468328344 0.0
vertex -108.640166111173 54.3511870312671 0.0
endloop
endfacet
facet normal -0.381526985422712 -0.924357700997973 0.0
outer loop
vertex -108.640166111173 54.3511870312671 0.0
vertex -108.655931210815 54.3553901390904 -0.125
vertex -108.640166111173 54.3511870312671 -0.125
endloop
endfacet
facet normal -0.129285391140387 -0.991607426171102 0.0
outer loop
vertex -108.655931210815 54.3553901390904 -0.125
vertex -108.640166111173 54.3511870312671 0.0
vertex -108.655931210815 54.3553901390904 0.0
endloop
endfacet
facet normal -0.129285391140387 -0.991607426171102 0.0
outer loop
vertex -108.655931210815 54.3553901390904 0.0
vertex -108.672246972067 54.3553697214522 -0.125
vertex -108.655931210815 54.3553901390904 -0.125
endloop
endfacet
facet normal 0.131766788893764 -0.991280743959362 0.0
outer loop
vertex -108.672246972067 54.3553697214522 -0.125
vertex -108.655931210815 54.3553901390904 0.0
vertex -108.672246972067 54.3553697214522 0.0
endloop
endfacet
facet normal 0.131766788893764 -0.991280743959362 0.0
outer loop
vertex -108.672246972067 54.3553697214522 0.0
vertex -108.688001502763 54.3511271697807 -0.125
vertex -108.672246972067 54.3553697214522 -0.125
endloop
endfacet
facet normal 0.383839280019631 -0.923399917215727 0.0
outer loop
vertex -108.688001502763 54.3511271697807 -0.125
vertex -108.672246972067 54.3553697214522 0.0
vertex -108.688001502763 54.3511271697807 0.0
endloop
endfacet
facet normal 0.383839280019631 -0.923399917215727 0.0
outer loop
vertex -108.688001502763 54.3511271697807 0.0
vertex -108.70212115767 54.3429516069613 -0.125
vertex -108.688001502763 54.3511271697807 -0.125
endloop
endfacet
facet normal 0.609753758536614 -0.792590912104392 0.0
outer loop
vertex -108.70212115767 54.3429516069613 -0.125
vertex -108.688001502763 54.3511271697807 0.0
vertex -108.70212115767 54.3429516069613 0.0
endloop
endfacet
facet normal 0.609753758536614 -0.792590912104392 0.0
outer loop
vertex -108.70212115767 54.3429516069613 -0.125
vertex -108.713643705641 54.3314001840892 0.0
vertex -108.713643705641 54.3314001840892 -0.125
endloop
endfacet
facet normal 0.794114526075293 -0.607768146151321 0.0
outer loop
vertex -108.713643705641 54.3314001840892 0.0
vertex -108.70212115767 54.3429516069613 -0.125
vertex -108.70212115767 54.3429516069613 0.0
endloop
endfacet
facet normal 0.794114526075293 -0.607768146151321 0.0
outer loop
vertex -108.713643705641 54.3314001840892 -0.125
vertex -108.721783904074 54.3172601115437 0.0
vertex -108.721783904074 54.3172601115437 -0.125
endloop
endfacet
facet normal 0.924357700997926 -0.381526985422826 0.0
outer loop
vertex -108.721783904074 54.3172601115437 0.0
vertex -108.713643705641 54.3314001840892 -0.125
vertex -108.713643705641 54.3314001840892 0.0
endloop
endfacet
facet normal 0.924357700997926 -0.381526985422826 0.0
outer loop
vertex -108.721783904074 54.3172601115437 -0.125
vertex -108.725987011897 54.301495011901 0.0
vertex -108.725987011897 54.301495011901 -0.125
endloop
endfacet
facet normal 0.991607426171076 -0.129285391140589 0.0
outer loop
vertex -108.725987011897 54.301495011901 0.0
vertex -108.721783904074 54.3172601115437 -0.125
vertex -108.721783904074 54.3172601115437 0.0
endloop
endfacet
facet normal 0.991607426171076 -0.129285391140589 0.0
outer loop
vertex -108.725987011897 54.301495011901 -0.125
vertex -108.725966594259 54.2851792506489 0.0
vertex -108.725966594259 54.2851792506489 -0.125
endloop
endfacet
facet normal 0.991280743959326 0.131766788894036 0.0
outer loop
vertex -108.725966594259 54.2851792506489 0.0
vertex -108.725987011897 54.301495011901 -0.125
vertex -108.725987011897 54.301495011901 0.0
endloop
endfacet
facet normal 0.991280743959326 0.131766788894036 0.0
outer loop
vertex -108.725966594259 54.2851792506489 -0.125
vertex -108.721724042588 54.2694247199535 0.0
vertex -108.721724042588 54.2694247199535 -0.125
endloop
endfacet
facet normal 0.923399917215705 0.383839280019683 0.0
outer loop
vertex -108.721724042588 54.2694247199535 0.0
vertex -108.725966594259 54.2851792506489 -0.125
vertex -108.725966594259 54.2851792506489 0.0
endloop
endfacet
facet normal 0.923399917215705 0.383839280019683 0.0
outer loop
vertex -108.721724042588 54.2694247199535 -0.125
vertex -108.713548479768 54.2553050650462 0.0
vertex -108.713548479768 54.2553050650462 -0.125
endloop
endfacet
facet normal 0.865399023271177 0.501083356859209 -0.0
outer loop
vertex -108.713548479768 54.2553050650462 0.0
vertex -108.721724042588 54.2694247199535 -0.125
vertex -108.721724042588 54.2694247199535 0.0
endloop
endfacet
facet normal -0.0 -0.0 1.0
outer loop
vertex -109.390389309082 54.2772384846358 -0.125
vertex -109.390389309082 54.3095908652736 -0.125
vertex -109.392518944939 54.2934146749547 -0.125
endloop
endfacet
facet normal -0.0 -0.0 1.0
outer loop
vertex -109.390389309082 54.3095908652736 -0.125
vertex -109.390389309082 54.2772384846358 -0.125
vertex -109.384145532675 54.2621646749547 -0.125
endloop
endfacet
facet normal -0.0 -0.0 1.0
outer loop
vertex -109.390389309082 54.3095908652736 -0.125
vertex -109.384145532675 54.2621646749547 -0.125
vertex -109.384145532675 54.3246646749547 -0.125
endloop
endfacet
facet normal -0.0 -0.0 1.0
outer loop
vertex -109.384145532675 54.3246646749547 -0.125
vertex -109.384145532675 54.2621646749547 -0.125
vertex -109.374213118763 54.2492205011306 -0.125
endloop
endfacet
facet normal -0.0 -0.0 1.0
outer loop
vertex -109.384145532675 54.3246646749547 -0.125
vertex -109.374213118763 54.2492205011306 -0.125
vertex -109.374213118763 54.3376088487789 -0.125
endloop
endfacet
facet normal -0.0 -0.0 1.0
outer loop
vertex -109.374213118763 54.3376088487789 -0.125
vertex -109.374213118763 54.2492205011306 -0.125
vertex -109.361268944939 54.2392880872182 -0.125
endloop
endfacet
facet normal -0.0 -0.0 1.0
outer loop
vertex -109.374213118763 54.3376088487789 -0.125
vertex -109.361268944939 54.2392880872182 -0.125
vertex -109.361268944939 54.3475412626913 -0.125
endloop
endfacet
facet normal -0.0 -0.0 1.0
outer loop
vertex -109.361268944939 54.3475412626913 -0.125
vertex -109.361268944939 54.2392880872182 -0.125
vertex -109.346195135258 54.2330443108117 -0.125
endloop
endfacet
facet normal -0.0 -0.0 1.0
outer loop
vertex -109.361268944939 54.3475412626913 -0.125
vertex -109.346195135258 54.2330443108117 -0.125
vertex -109.346195135258 54.3537850390978 -0.125
endloop
endfacet
facet normal -0.0 -0.0 1.0
outer loop
vertex -109.346195135258 54.3537850390978 -0.125
vertex -109.346195135258 54.2330443108117 -0.125
vertex -109.330018944939 54.2309146749547 -0.125
endloop
endfacet
facet normal -0.0 -0.0 1.0
outer loop
vertex -109.346195135258 54.3537850390978 -0.125
vertex -109.330018944939 54.2309146749547 -0.125
vertex -109.330018944939 54.3559146749547 -0.125
endloop
endfacet
facet normal -0.0 -0.0 1.0
outer loop
vertex -109.330018944939 54.3559146749547 -0.125
vertex -109.330018944939 54.2309146749547 -0.125
vertex -109.330018944939 54.3391239633466 -0.125
endloop
endfacet
facet normal -0.0 -0.0 1.0
outer loop
vertex -109.330018944939 54.3559146749547 -0.125
vertex -109.330018944939 54.3391239633466 -0.125
vertex -109.274114623729 54.2664565032158 -0.125
endloop
endfacet
facet normal -0.0 -0.0 1.0
outer loop
vertex -109.330018944939 54.3559146749547 -0.125
vertex -109.274114623729 54.2664565032158 -0.125
vertex -109.31384275462 54.3537850390978 -0.125
endloop
endfacet
facet normal -0.0 -0.0 1.0
outer loop
vertex -109.31384275462 54.3537850390978 -0.125
vertex -109.274114623729 54.2664565032158 -0.125
vertex -109.298768944939 54.3475412626913 -0.125
endloop
endfacet
facet normal -0.0 -0.0 1.0
outer loop
vertex -109.298768944939 54.3475412626913 -0.125
vertex -109.274114623729 54.2664565032158 -0.125
vertex -109.285824771115 54.3376088487789 -0.125
endloop
endfacet
facet normal -0.0 -0.0 1.0
outer loop
vertex -109.285824771115 54.3376088487789 -0.125
vertex -109.274114623729 54.2664565032158 -0.125
vertex -109.275892357202 54.3246646749547 -0.125
endloop
endfacet
facet normal -0.0 -0.0 1.0
outer loop
vertex -109.275892357202 54.3246646749547 -0.125
vertex -109.274114623729 54.2664565032158 -0.125
vertex -109.269648580796 54.3095908652736 -0.125
endloop
endfacet
facet normal -0.0 -0.0 1.0
outer loop
vertex -109.269648580796 54.3095908652736 -0.125
vertex -109.274114623729 54.2664565032158 -0.125
vertex -109.269648580796 54.2772384846358 -0.125
endloop
endfacet
facet normal -0.0 -0.0 1.0
outer loop
vertex -109.269648580796 54.3095908652736 -0.125
vertex -109.269648580796 54.2772384846358 -0.125
vertex -109.267518944939 54.2934146749547 -0.125
endloop
endfacet
facet normal -0.965925826289074 0.258819045102499 0.0
outer loop
vertex -109.269648580796 54.2772384846358 0.0
vertex -109.274114623729 54.2664565032158 -0.125
vertex -109.274114623729 54.2664565032158 0.0
endloop
endfacet
facet normal -0.923879532511262 0.382683432365149 0.0
outer loop
vertex -109.274114623729 54.2664565032158 -0.125
vertex -109.269648580796 54.2772384846358 0.0
vertex -109.269648580796 54.2772384846358 -0.125
endloop
endfacet
facet normal -1.0 0.0 0.0
outer loop
vertex -109.267518944939 54.2934146749547 0.0
vertex -109.269648580796 54.2772384846358 -0.125
vertex -109.269648580796 54.2772384846358 0.0
endloop
endfacet
facet normal -0.965925826289074 0.258819045102499 0.0
outer loop
vertex -109.269648580796 54.2772384846358 -0.125
vertex -109.267518944939 54.2934146749547 0.0
vertex -109.267518944939 54.2934146749547 -0.125
endloop
endfacet
facet normal -0.96592582628911 -0.258819045102365 0.0
outer loop
vertex -109.269648580796 54.3095908652736 0.0
vertex -109.267518944939 54.2934146749547 -0.125
vertex -109.267518944939 54.2934146749547 0.0
endloop
endfacet
facet normal -1.0 0.0 0.0
outer loop
vertex -109.267518944939 54.2934146749547 -0.125
vertex -109.269648580796 54.3095908652736 0.0
vertex -109.269648580796 54.3095908652736 -0.125
endloop
endfacet
facet normal -0.866025403784341 -0.500000000000169 0.0
outer loop
vertex -109.275892357202 54.3246646749547 0.0
vertex -109.269648580796 54.3095908652736 -0.125
vertex -109.269648580796 54.3095908652736 0.0
endloop
endfacet
facet normal -0.96592582628911 -0.258819045102365 0.0
outer loop
vertex -109.269648580796 54.3095908652736 -0.125
vertex -109.275892357202 54.3246646749547 0.0
vertex -109.275892357202 54.3246646749547 -0.125
endloop
endfacet
facet normal -0.707106781186397 -0.707106781186698 0.0
outer loop
vertex -109.285824771115 54.3376088487789 0.0
vertex -109.275892357202 54.3246646749547 -0.125
vertex -109.275892357202 54.3246646749547 0.0
endloop
endfacet
facet normal -0.866025403784341 -0.500000000000169 0.0
outer loop
vertex -109.275892357202 54.3246646749547 -0.125
vertex -109.285824771115 54.3376088487789 0.0
vertex -109.285824771115 54.3376088487789 -0.125
endloop
endfacet
facet normal -0.707106781186397 -0.707106781186698 0.0
outer loop
vertex -109.285824771115 54.3376088487789 0.0
vertex -109.298768944939 54.3475412626913 -0.125
vertex -109.285824771115 54.3376088487789 -0.125
endloop
endfacet
facet normal -0.500000000000086 -0.866025403784389 0.0
outer loop
vertex -109.298768944939 54.3475412626913 -0.125
vertex -109.285824771115 54.3376088487789 0.0
vertex -109.298768944939 54.3475412626913 0.0
endloop
endfacet
facet normal -0.500000000000086 -0.866025403784389 0.0
outer loop
vertex -109.298768944939 54.3475412626913 0.0
vertex -109.31384275462 54.3537850390978 -0.125
vertex -109.298768944939 54.3475412626913 -0.125
endloop
endfacet
facet normal -0.258819045102506 -0.965925826289072 0.0
outer loop
vertex -109.31384275462 54.3537850390978 -0.125
vertex -109.298768944939 54.3475412626913 0.0
vertex -109.31384275462 54.3537850390978 0.0
endloop
endfacet
facet normal -0.258819045102506 -0.965925826289072 0.0
outer loop
vertex -109.31384275462 54.3537850390978 0.0
vertex -109.330018944939 54.3559146749547 -0.125
vertex -109.31384275462 54.3537850390978 -0.125
endloop
endfacet
facet normal 0.0 -1.0 0.0
outer loop
vertex -109.330018944939 54.3559146749547 -0.125
vertex -109.31384275462 54.3537850390978 0.0
vertex -109.330018944939 54.3559146749547 0.0
endloop
endfacet
facet normal 0.0 -1.0 0.0
outer loop
vertex -109.330018944939 54.3559146749547 0.0
vertex -109.346195135258 54.3537850390978 -0.125
vertex -109.330018944939 54.3559146749547 -0.125
endloop
endfacet
facet normal 0.258819045102506 -0.965925826289072 0.0
outer loop
vertex -109.346195135258 54.3537850390978 -0.125
vertex -109.330018944939 54.3559146749547 0.0
vertex -109.346195135258 54.3537850390978 0.0
endloop
endfacet
facet normal 0.258819045102506 -0.965925826289072 0.0
outer loop
vertex -109.346195135258 54.3537850390978 0.0
vertex -109.361268944939 54.3475412626913 -0.125
vertex -109.346195135258 54.3537850390978 -0.125
endloop
endfacet
facet normal 0.500000000000086 -0.866025403784389 0.0
outer loop
vertex -109.361268944939 54.3475412626913 -0.125
vertex -109.346195135258 54.3537850390978 0.0
vertex -109.361268944939 54.3475412626913 0.0
endloop
endfacet
facet normal 0.500000000000086 -0.866025403784389 0.0
outer loop
vertex -109.361268944939 54.3475412626913 0.0
vertex -109.374213118763 54.3376088487789 -0.125
vertex -109.361268944939 54.3475412626913 -0.125
endloop
endfacet
facet normal 0.707106781186397 -0.707106781186698 0.0
outer loop
vertex -109.374213118763 54.3376088487789 -0.125
vertex -109.361268944939 54.3475412626913 0.0
vertex -109.374213118763 54.3376088487789 0.0
endloop
endfacet
facet normal 0.707106781186397 -0.707106781186698 0.0
outer loop
vertex -109.374213118763 54.3376088487789 -0.125
vertex -109.384145532675 54.3246646749547 0.0
vertex -109.384145532675 54.3246646749547 -0.125
endloop
endfacet
facet normal 0.866025403784341 -0.500000000000169 0.0
outer loop
vertex -109.384145532675 54.3246646749547 0.0
vertex -109.374213118763 54.3376088487789 -0.125
vertex -109.374213118763 54.3376088487789 0.0
endloop
endfacet
facet normal 0.866025403784341 -0.500000000000169 0.0
outer loop
vertex -109.384145532675 54.3246646749547 -0.125
vertex -109.390389309082 54.3095908652736 0.0
vertex -109.390389309082 54.3095908652736 -0.125
endloop
endfacet
facet normal 0.96592582628911 -0.258819045102365 0.0
outer loop
vertex -109.390389309082 54.3095908652736 0.0
vertex -109.384145532675 54.3246646749547 -0.125
vertex -109.384145532675 54.3246646749547 0.0
endloop
endfacet
facet normal 0.96592582628911 -0.258819045102365 0.0
outer loop
vertex -109.390389309082 54.3095908652736 -0.125
vertex -109.392518944939 54.2934146749547 0.0
vertex -109.392518944939 54.2934146749547 -0.125
endloop
endfacet
facet normal 1.0 0.0 0.0
outer loop
vertex -109.392518944939 54.2934146749547 0.0
vertex -109.390389309082 54.3095908652736 -0.125
vertex -109.390389309082 54.3095908652736 0.0
endloop
endfacet
facet normal 1.0 0.0 0.0
outer loop
vertex -109.392518944939 54.2934146749547 -0.125
vertex -109.390389309082 54.2772384846358 0.0
vertex -109.390389309082 54.2772384846358 -0.125
endloop
endfacet
facet normal 0.96592582628911 0.258819045102365 0.0
outer loop
vertex -109.390389309082 54.2772384846358 0.0
vertex -109.392518944939 54.2934146749547 -0.125
vertex -109.392518944939 54.2934146749547 0.0
endloop
endfacet
facet normal 0.96592582628911 0.258819045102365 0.0
outer loop
vertex -109.390389309082 54.2772384846358 -0.125
vertex -109.384145532675 54.2621646749547 0.0
vertex -109.384145532675 54.2621646749547 -0.125
endloop
endfacet
facet normal 0.866025403784341 0.500000000000169 0.0
outer loop
vertex -109.384145532675 54.2621646749547 0.0
vertex -109.390389309082 54.2772384846358 -0.125
vertex -109.390389309082 54.2772384846358 0.0
endloop
endfacet
facet normal 0.866025403784341 0.500000000000169 0.0
outer loop
vertex -109.384145532675 54.2621646749547 -0.125
vertex -109.374213118763 54.2492205011306 0.0
vertex -109.374213118763 54.2492205011306 -0.125
endloop
endfacet
facet normal 0.707106781186397 0.707106781186698 0.0
outer loop
vertex -109.374213118763 54.2492205011306 0.0
vertex -109.384145532675 54.2621646749547 -0.125
vertex -109.384145532675 54.2621646749547 0.0
endloop
endfacet
facet normal 0.707106781186397 0.707106781186698 0.0
outer loop
vertex -109.374213118763 54.2492205011306 0.0
vertex -109.361268944939 54.2392880872182 -0.125
vertex -109.374213118763 54.2492205011306 -0.125
endloop
endfacet
facet normal 0.500000000000086 0.866025403784389 0.0
outer loop
vertex -109.361268944939 54.2392880872182 -0.125
vertex -109.374213118763 54.2492205011306 0.0
vertex -109.361268944939 54.2392880872182 0.0
endloop
endfacet
facet normal 0.500000000000086 0.866025403784389 0.0
outer loop
vertex -109.361268944939 54.2392880872182 0.0
vertex -109.346195135258 54.2330443108117 -0.125
vertex -109.361268944939 54.2392880872182 -0.125
endloop
endfacet
facet normal 0.258819045102506 0.965925826289072 0.0
outer loop
vertex -109.346195135258 54.2330443108117 -0.125
vertex -109.361268944939 54.2392880872182 0.0
vertex -109.346195135258 54.2330443108117 0.0
endloop
endfacet
facet normal 0.258819045102506 0.965925826289072 0.0
outer loop
vertex -109.346195135258 54.2330443108117 0.0
vertex -109.330018944939 54.2309146749547 -0.125
vertex -109.346195135258 54.2330443108117 -0.125
endloop
endfacet
facet normal 0.130526192219999 0.991444861373817 -0.0
outer loop
vertex -109.330018944939 54.2309146749547 -0.125
vertex -109.346195135258 54.2330443108117 0.0
vertex -109.330018944939 54.2309146749547 0.0
endloop
endfacet
facet normal -5.18079665443667e-16 1.62891224938423e-16 1.0
outer loop
vertex -109.017418286413 54.243782517075 -0.125
vertex -109.02702358932 54.256802248455 -0.125
vertex -109.02783249723 54.2541706956615 -0.125
endloop
endfacet
facet normal -5.18079665443667e-16 1.62891224938423e-16 1.0
outer loop
vertex -109.02702358932 54.256802248455 -0.125
vertex -109.017418286413 54.243782517075 -0.125
vertex -108.979432777279 54.2934146749547 -0.125
endloop
endfacet
facet normal -5.18079665443667e-16 1.62891224938423e-16 1.0
outer loop
vertex -108.979432777279 54.2934146749547 -0.125
vertex -109.017418286413 54.243782517075 -0.125
vertex -109.003278213868 54.2356423186424 -0.125
endloop
endfacet
facet normal -5.18079665443667e-16 1.62891224938423e-16 1.0
outer loop
vertex -108.979432777279 54.2934146749547 -0.125
vertex -109.003278213868 54.2356423186424 -0.125
vertex -108.987513114225 54.231439210819 -0.125
endloop
endfacet
facet normal -5.18079665443667e-16 1.62891224938423e-16 1.0
outer loop
vertex -108.979432777279 54.2934146749547 -0.125
vertex -108.987513114225 54.231439210819 -0.125
vertex -108.971197352973 54.2314596284573 -0.125
endloop
endfacet
facet normal -5.18079665443667e-16 1.62891224938423e-16 1.0
outer loop
vertex -108.979432777279 54.2934146749547 -0.125
vertex -108.971197352973 54.2314596284573 -0.125
vertex -108.94132316737 54.2438777429482 -0.125
endloop
endfacet
facet normal -5.18079665443667e-16 1.62891224938423e-16 1.0
outer loop
vertex -108.94132316737 54.2438777429482 -0.125
vertex -108.971197352973 54.2314596284573 -0.125
vertex -108.955442822277 54.2357021801288 -0.125
endloop
endfacet
facet normal -4.07947871325412e-15 1.253983051845e-15 1.0
outer loop
vertex -109.02702358932 54.256802248455 -0.125
vertex -109.028969709285 54.2553050650462 -0.125
vertex -109.02783249723 54.2541706956615 -0.125
endloop
endfacet
facet normal -0.0 -0.0 1.0
outer loop
vertex -109.31384275462 54.2330443108117 -0.125
vertex -109.330018944939 54.3391239633466 -0.125
vertex -109.330018944939 54.2309146749547 -0.125
endloop
endfacet
facet normal -0.0 -0.0 1.0
outer loop
vertex -109.330018944939 54.3391239633466 -0.125
vertex -109.31384275462 54.2330443108117 -0.125
vertex -109.274114623729 54.2664565032158 -0.125
endloop
endfacet
facet normal -0.0 -0.0 1.0
outer loop
vertex -109.274114623729 54.2664565032158 -0.125
vertex -109.31384275462 54.2330443108117 -0.125
vertex -109.298768944939 54.2392880872182 -0.125
endloop
endfacet
facet normal -0.0 -0.0 1.0
outer loop
vertex -109.274114623729 54.2664565032158 -0.125
vertex -109.298768944939 54.2392880872182 -0.125
vertex -109.285824771115 54.2492205011306 -0.125
endloop
endfacet
facet normal -0.0 -0.0 1.0
outer loop
vertex -109.274114623729 54.2664565032158 -0.125
vertex -109.285824771115 54.2492205011306 -0.125
vertex -109.275892357202 54.2621646749547 -0.125
endloop
endfacet
facet normal -0.0 -0.0 1.0
outer loop
vertex -108.701997056896 54.243782517075 -0.125
vertex -108.664011547762 54.2934146749547 -0.125
vertex -108.713548479768 54.2553050650462 -0.125
endloop
endfacet
facet normal -0.0 -0.0 1.0
outer loop
vertex -108.664011547762 54.2934146749547 -0.125
vertex -108.701997056896 54.243782517075 -0.125
vertex -108.687856984351 54.2356423186424 -0.125
endloop
endfacet
facet normal -0.0 -0.0 1.0
outer loop
vertex -108.664011547762 54.2934146749547 -0.125
vertex -108.687856984351 54.2356423186424 -0.125
vertex -108.672091884708 54.231439210819 -0.125
endloop
endfacet
facet normal -0.0 -0.0 1.0
outer loop
vertex -108.664011547762 54.2934146749547 -0.125
vertex -108.672091884708 54.231439210819 -0.125
vertex -108.664011547762 54.2314493225996 -0.125
endloop
endfacet
endsolid CheckersPiece
