solid IndentedBlock1
facet normal 0.0 0.0 -1.0
outer loop
vertex -201.416353604942 101.25352794039 5.6843418860808e-14
vertex -199.166353604942 99.0035279403903 5.6843418860808e-14
vertex -201.416353604942 89.2535279403903 5.6843418860808e-14
endloop
endfacet
facet normal 0.0 0.0 -1.0
outer loop
vertex -199.166353604942 99.0035279403903 5.6843418860808e-14
vertex -201.416353604942 101.25352794039 5.6843418860808e-14
vertex -189.416353604942 101.25352794039 5.6843418860808e-14
endloop
endfacet
facet normal 0.0 0.0 -1.0
outer loop
vertex -199.166353604942 99.0035279403903 5.6843418860808e-14
vertex -189.416353604942 101.25352794039 5.6843418860808e-14
vertex -191.666353604942 99.0035279403903 5.6843418860808e-14
endloop
endfacet
facet normal 0.0 0.0 -1.0
outer loop
vertex -191.666353604942 99.0035279403903 5.6843418860808e-14
vertex -189.416353604942 101.25352794039 5.6843418860808e-14
vertex -191.666353604942 91.5035279403903 5.6843418860808e-14
endloop
endfacet
facet normal 0.0 0.0 -1.0
outer loop
vertex -201.416353604942 89.2535279403903 5.6843418860808e-14
vertex -199.166353604942 91.5035279403903 5.6843418860808e-14
vertex -189.416353604942 89.2535279403903 5.6843418860808e-14
endloop
endfacet
facet normal 0.0 0.0 -1.0
outer loop
vertex -199.166353604942 91.5035279403903 5.6843418860808e-14
vertex -201.416353604942 89.2535279403903 5.6843418860808e-14
vertex -199.166353604942 99.0035279403903 5.6843418860808e-14
endloop
endfacet
facet normal 0.0 0.0 -1.0
outer loop
vertex -189.416353604942 89.2535279403903 5.6843418860808e-14
vertex -199.166353604942 91.5035279403903 5.6843418860808e-14
vertex -191.666353604942 91.5035279403903 5.6843418860808e-14
endloop
endfacet
facet normal 0.0 0.0 -1.0
outer loop
vertex -189.416353604942 89.2535279403903 5.6843418860808e-14
vertex -191.666353604942 91.5035279403903 5.6843418860808e-14
vertex -189.416353604942 101.25352794039 5.6843418860808e-14
endloop
endfacet
facet normal -0.0 -0.0 1.0
outer loop
vertex -201.416353604942 89.2535279403903 12.0000000000001
vertex -199.166353604942 91.5035279403903 12.0000000000001
vertex -201.416353604942 101.25352794039 12.0000000000001
endloop
endfacet
facet normal -0.0 -0.0 1.0
outer loop
vertex -199.166353604942 91.5035279403903 12.0000000000001
vertex -201.416353604942 89.2535279403903 12.0000000000001
vertex -189.416353604942 89.2535279403903 12.0000000000001
endloop
endfacet
facet normal -0.0 -0.0 1.0
outer loop
vertex -199.166353604942 91.5035279403903 12.0000000000001
vertex -189.416353604942 89.2535279403903 12.0000000000001
vertex -191.666353604942 91.5035279403903 12.0000000000001
endloop
endfacet
facet normal -0.0 -0.0 1.0
outer loop
vertex -191.666353604942 91.5035279403903 12.0000000000001
vertex -189.416353604942 89.2535279403903 12.0000000000001
vertex -191.666353604942 99.0035279403903 12.0000000000001
endloop
endfacet
facet normal -0.0 -0.0 1.0
outer loop
vertex -201.416353604942 101.25352794039 12.0000000000001
vertex -199.166353604942 99.0035279403903 12.0000000000001
vertex -189.416353604942 101.25352794039 12.0000000000001
endloop
endfacet
facet normal -0.0 -0.0 1.0
outer loop
vertex -199.166353604942 99.0035279403903 12.0000000000001
vertex -201.416353604942 101.25352794039 12.0000000000001
vertex -199.166353604942 91.5035279403903 12.0000000000001
endloop
endfacet
facet normal -0.0 -0.0 1.0
outer loop
vertex -189.416353604942 101.25352794039 12.0000000000001
vertex -199.166353604942 99.0035279403903 12.0000000000001
vertex -191.666353604942 99.0035279403903 12.0000000000001
endloop
endfacet
facet normal -0.0 -0.0 1.0
outer loop
vertex -189.416353604942 101.25352794039 12.0000000000001
vertex -191.666353604942 99.0035279403903 12.0000000000001
vertex -189.416353604942 89.2535279403903 12.0000000000001
endloop
endfacet
facet normal 1.0 0.0 0.0
outer loop
vertex -189.416353604942 101.25352794039 5.6843418860808e-14
vertex -189.416353604942 89.2535279403903 12.0000000000001
vertex -189.416353604942 89.2535279403903 5.6843418860808e-14
endloop
endfacet
facet normal 1.0 0.0 0.0
outer loop
vertex -189.416353604942 89.2535279403903 12.0000000000001
vertex -189.416353604942 101.25352794039 5.6843418860808e-14
vertex -189.416353604942 101.25352794039 12.0000000000001
endloop
endfacet
facet normal -0.0 -1.0 -0.0
outer loop
vertex -189.416353604942 89.2535279403903 12.0000000000001
vertex -201.416353604942 89.2535279403903 5.6843418860808e-14
vertex -189.416353604942 89.2535279403903 5.6843418860808e-14
endloop
endfacet
facet normal -0.0 -1.0 -0.0
outer loop
vertex -201.416353604942 89.2535279403903 5.6843418860808e-14
vertex -189.416353604942 89.2535279403903 12.0000000000001
vertex -201.416353604942 89.2535279403903 12.0000000000001
endloop
endfacet
facet normal -1.0 0.0 0.0
outer loop
vertex -201.416353604942 101.25352794039 12.0000000000001
vertex -201.416353604942 89.2535279403903 5.6843418860808e-14
vertex -201.416353604942 89.2535279403903 12.0000000000001
endloop
endfacet
facet normal -1.0 0.0 0.0
outer loop
vertex -201.416353604942 89.2535279403903 5.6843418860808e-14
vertex -201.416353604942 101.25352794039 12.0000000000001
vertex -201.416353604942 101.25352794039 5.6843418860808e-14
endloop
endfacet
facet normal -0.0 1.0 0.0
outer loop
vertex -201.416353604942 101.25352794039 12.0000000000001
vertex -189.416353604942 101.25352794039 5.6843418860808e-14
vertex -201.416353604942 101.25352794039 5.6843418860808e-14
endloop
endfacet
facet normal -0.0 1.0 0.0
outer loop
vertex -189.416353604942 101.25352794039 5.6843418860808e-14
vertex -201.416353604942 101.25352794039 12.0000000000001
vertex -189.416353604942 101.25352794039 12.0000000000001
endloop
endfacet
facet normal 0.0 0.0 1.0
outer loop
vertex -191.666353604942 91.5035279403903 7.50000000000006
vertex -199.166353604942 99.0035279403903 7.50000000000006
vertex -199.166353604942 91.5035279403903 7.50000000000006
endloop
endfacet
facet normal 0.0 0.0 1.0
outer loop
vertex -199.166353604942 99.0035279403903 7.50000000000006
vertex -191.666353604942 91.5035279403903 7.50000000000006
vertex -191.666353604942 99.0035279403903 7.50000000000006
endloop
endfacet
facet normal -0.0 1.0 -0.0
outer loop
vertex -199.166353604942 91.5035279403903 12.0000000000001
vertex -191.666353604942 91.5035279403903 7.50000000000006
vertex -199.166353604942 91.5035279403903 7.50000000000006
endloop
endfacet
facet normal -0.0 1.0 -0.0
outer loop
vertex -191.666353604942 91.5035279403903 7.50000000000006
vertex -199.166353604942 91.5035279403903 12.0000000000001
vertex -191.666353604942 91.5035279403903 12.0000000000001
endloop
endfacet
facet normal -1.0 0.0 -0.0
outer loop
vertex -191.666353604942 99.0035279403903 12.0000000000001
vertex -191.666353604942 91.5035279403903 7.50000000000006
vertex -191.666353604942 91.5035279403903 12.0000000000001
endloop
endfacet
facet normal -1.0 0.0 -0.0
outer loop
vertex -191.666353604942 91.5035279403903 7.50000000000006
vertex -191.666353604942 99.0035279403903 12.0000000000001
vertex -191.666353604942 99.0035279403903 7.50000000000006
endloop
endfacet
facet normal -0.0 -1.0 -0.0
outer loop
vertex -191.666353604942 99.0035279403903 12.0000000000001
vertex -199.166353604942 99.0035279403903 7.50000000000006
vertex -191.666353604942 99.0035279403903 7.50000000000006
endloop
endfacet
facet normal -0.0 -1.0 -0.0
outer loop
vertex -199.166353604942 99.0035279403903 7.50000000000006
vertex -191.666353604942 99.0035279403903 12.0000000000001
vertex -199.166353604942 99.0035279403903 12.0000000000001
endloop
endfacet
facet normal 1.0 0.0 0.0
outer loop
vertex -199.166353604942 99.0035279403903 7.50000000000006
vertex -199.166353604942 91.5035279403903 12.0000000000001
vertex -199.166353604942 91.5035279403903 7.50000000000006
endloop
endfacet
facet normal 1.0 0.0 0.0
outer loop
vertex -199.166353604942 91.5035279403903 12.0000000000001
vertex -199.166353604942 99.0035279403903 7.50000000000006
vertex -199.166353604942 99.0035279403903 12.0000000000001
endloop
endfacet
facet normal 0.0 0.0 -1.0
outer loop
vertex -191.666353604942 99.0035279403903 3.00000000000006
vertex -199.166353604942 91.5035279403903 3.00000000000006
vertex -199.166353604942 99.0035279403903 3.00000000000006
endloop
endfacet
facet normal 0.0 0.0 -1.0
outer loop
vertex -199.166353604942 91.5035279403903 3.00000000000006
vertex -191.666353604942 99.0035279403903 3.00000000000006
vertex -191.666353604942 91.5035279403903 3.00000000000006
endloop
endfacet
facet normal -1.0 -0.0 -0.0
outer loop
vertex -191.666353604942 99.0035279403903 3.00000000000006
vertex -191.666353604942 91.5035279403903 5.6843418860808e-14
vertex -191.666353604942 91.5035279403903 3.00000000000006
endloop
endfacet
facet normal -1.0 -0.0 -0.0
outer loop
vertex -191.666353604942 91.5035279403903 5.6843418860808e-14
vertex -191.666353604942 99.0035279403903 3.00000000000006
vertex -191.666353604942 99.0035279403903 5.6843418860808e-14
endloop
endfacet
facet normal 0.0 1.0 0.0
outer loop
vertex -199.166353604942 91.5035279403903 3.00000000000006
vertex -191.666353604942 91.5035279403903 5.6843418860808e-14
vertex -199.166353604942 91.5035279403903 5.6843418860808e-14
endloop
endfacet
facet normal 0.0 1.0 0.0
outer loop
vertex -191.666353604942 91.5035279403903 5.6843418860808e-14
vertex -199.166353604942 91.5035279403903 3.00000000000006
vertex -191.666353604942 91.5035279403903 3.00000000000006
endloop
endfacet
facet normal 1.0 -0.0 -0.0
outer loop
vertex -199.166353604942 99.0035279403903 5.6843418860808e-14
vertex -199.166353604942 91.5035279403903 3.00000000000006
vertex -199.166353604942 91.5035279403903 5.6843418860808e-14
endloop
endfacet
facet normal 1.0 -0.0 -0.0
outer loop
vertex -199.166353604942 91.5035279403903 3.00000000000006
vertex -199.166353604942 99.0035279403903 5.6843418860808e-14
vertex -199.166353604942 99.0035279403903 3.00000000000006
endloop
endfacet
facet normal 0.0 -1.0 -0.0
outer loop
vertex -191.666353604942 99.0035279403903 3.00000000000006
vertex -199.166353604942 99.0035279403903 5.6843418860808e-14
vertex -191.666353604942 99.0035279403903 5.6843418860808e-14
endloop
endfacet
facet normal 0.0 -1.0 -0.0
outer loop
vertex -199.166353604942 99.0035279403903 5.6843418860808e-14
vertex -191.666353604942 99.0035279403903 3.00000000000006
vertex -199.166353604942 99.0035279403903 3.00000000000006
endloop
endfacet
endsolid IndentedBlock1
